<?xml version="1.0" encoding="utf-8"?>
<!-- Generator: Adobe Illustrator 28.1.0, SVG Export Plug-In . SVG Version: 6.00 Build 0)  -->
<svg version="1.0" id="katman_1" xmlns="http://www.w3.org/2000/svg" xmlns:xlink="http://www.w3.org/1999/xlink" x="0px" y="0px"
	 viewBox="0 0 755.62 863.91" style="enable-background:new 0 0 755.62 863.91;" xml:space="preserve">
<style type="text/css">
	.st0{fill:#B4B5B7;}
</style>
<path d="M396.05,10.32c0,5.7-4.62,10.32-10.32,10.32c-5.7,0-10.32-4.62-10.32-10.32c0-5.7,4.62-10.32,10.32-10.32
	C391.43,0,396.05,4.62,396.05,10.32z"/>
<path d="M356.63,12.49c0,3.04-2.46,5.5-5.5,5.5s-5.5-2.46-5.5-5.5c0-3.04,2.46-5.5,5.5-5.5S356.63,9.45,356.63,12.49z"/>
<path d="M503.18,16.48c0,2.66-2.15,4.81-4.81,4.81c-2.66,0-4.81-2.15-4.81-4.81c0-2.66,2.15-4.81,4.81-4.81
	C501.03,11.67,503.18,13.82,503.18,16.48z"/>
<path d="M432.59,19.53c0,2.26-1.83,4.09-4.09,4.09s-4.09-1.83-4.09-4.09c0-2.26,1.83-4.09,4.09-4.09S432.59,17.27,432.59,19.53z"/>
<path d="M218.26,24.64c0,3.6-2.92,6.52-6.52,6.52c-3.6,0-6.52-2.92-6.52-6.52s2.92-6.52,6.52-6.52
	C215.34,18.12,218.26,21.04,218.26,24.64z"/>
<path d="M474.33,24.16c0,1.63-1.32,2.95-2.95,2.95s-2.95-1.32-2.95-2.95c0-1.63,1.32-2.95,2.95-2.95S474.33,22.53,474.33,24.16z"/>
<path d="M258.09,26.89c0,1.96-1.59,3.55-3.55,3.55s-3.55-1.59-3.55-3.55s1.59-3.55,3.55-3.55S258.09,24.93,258.09,26.89z"/>
<path d="M416.3,32.74c0,4.66-3.78,8.44-8.44,8.44c-4.66,0-8.44-3.78-8.44-8.44c0-4.66,3.78-8.44,8.44-8.44
	C412.52,24.3,416.3,28.08,416.3,32.74z"/>
<path d="M553.59,31.97c0,2.76-2.23,4.99-4.99,4.99c-2.76,0-4.99-2.23-4.99-4.99s2.23-4.99,4.99-4.99
	C551.36,26.98,553.59,29.21,553.59,31.97z"/>
<path d="M539.73,540.01c2.01,8.78,4.29,17.59,4.5,26.71c0.41,17.83-13.56,28.96-28.41,35.06c-0.35,0.14-0.53,0.4-0.52,0.78
	c0.26,22.11-12.63,38.24-33.16,44.58c-0.66,0.21-1.15,0.78-1.24,1.47c-0.61,4.47-1.56,8.82-2.85,13.03
	c-5.24,17.1-18.57,24.3-35.63,27.85c-0.44,0.09-0.74,0.35-0.89,0.78c-7.49,21.08-25.2,28.61-46.45,31.18
	c-0.83,0.1-0.85,0.29-0.06,0.56c12.41,4.3,25,4.48,35.86-3.41c8.25-6.01,13.7-13.34,16.37-22.01c0.11-0.34,0.34-0.52,0.69-0.55
	c9.49-0.76,17.76-4.23,24.79-10.4c9.33-8.19,14.38-18.78,15.14-31.75c0.02-0.44,0.25-0.67,0.7-0.69c0.92-0.04,1.84-0.08,2.71-0.44
	c20.25-8.34,31.63-23.58,34.16-45.72c0.08-0.72,0.42-0.89,1.03-0.5c2.4,1.52,4.67,3.29,6.81,5.31
	c14.28,13.51,23.16,30.11,26.65,49.8c0.91,5.17,1.51,10.3,1.8,15.39c0.03,0.49,0.25,0.85,0.67,1.09
	c8.21,4.57,16.95,10.64,26.22,18.22c0.18,0.15,0.35,0.14,0.51-0.03l5.86-6.19c0.14-0.15,0.14-0.29-0.01-0.44
	c-7.29-6.99-15.02-12.84-23.19-17.53c-0.29-0.17-0.45-0.42-0.5-0.75c-0.25-1.85-0.48-3.67-0.69-5.46
	c-2.93-25-14.25-47.41-32.75-64.51c-0.32-0.29-0.33-0.6-0.02-0.91c2.2-2.2,4.3-4.47,6.31-6.82c8.1-9.5,11.14-20.56,9.12-33.18
	c-0.07-0.48,0.13-0.68,0.61-0.61c2.35,0.34,4.76,0.86,7.15,0.72c8.56-0.47,16.4-2.88,23.51-7.24c0.31-0.19,0.33-0.62,0.04-0.83
	c-13.51-10.12-19.89-25.6-20.76-42.1c-0.04-0.69,0.3-1.36,0.88-1.74c14.06-9.14,23.11-25.01,26.25-41.56
	c1.31-6.93,2.25-13.61,2.81-20.04c0.08-1,0.51-2.23,1.05-3.06c5.35-8.27,9.95-17.04,12.38-26.81c4.1-16.54,5.69-37.59-2.54-52.55
	c-0.2-0.37,0.03-0.83,0.45-0.89c16.8-2.27,28.86-10.61,36.17-25.04c3.73-7.37,5.3-15.43,4.7-24.16
	c-0.71-10.21-3.62-20.04-8.74-29.49c-0.25-0.47-0.41-0.44-0.49,0.08c-0.95,6.52-3.77,19.03-10.85,21.87
	c-3.85,1.55-7.16,0.64-9.91-2.75c-3.17-3.91-3.05-12.33-2.21-17.2c0.94-5.47,1.76-10.91,2.45-16.33
	c1.74-13.64-0.23-28.47-8.05-39.78c-0.37-0.54-0.12-1.28,0.5-1.47c0.54-0.17,1.02-0.43,1.45-0.78c5.65-4.66,9.49-10.08,11.54-16.27
	c3.86-11.68,3.52-23.16-1.03-34.45c-0.47-1.17-0.27-1.31,0.62-0.4c36.79,37.63,64.48,80.46,83.07,128.5
	c7.12,18.39,12.95,39.23,17.49,62.5c11.83,60.68,5.62,124.08-14.25,183.33c-17.09,50.97-46.96,98.15-84.9,136.26
	c-20.78,20.88-44.35,39.99-67.38,58.54c-4.34,3.49-8.91,6.93-13.72,10.31c-0.12,0.09-0.19,0.2-0.21,0.33
	c-0.01,0.06,0.01,0.1,0.06,0.13c0.1,0.07,0.21,0.08,0.32,0.03c17.91-7.85,34.98-17.68,51.21-29.49c5.27-3.83,10.41-7.95,15.43-12.37
	c21.3-18.72,39.79-38.4,55.48-59.04c13.92-18.33,26.54-38.98,37.86-61.96c2.96-6.01,5.69-12.09,8.2-18.24
	c15.34-37.72,24.57-76.98,27.68-117.77c2.25-29.53,0.81-58.71-4.32-87.53c-4.25-23.84-10.84-47.56-19.79-71.16
	c-7.83-20.67-18.39-41.16-29.65-59.46c-5.6-9.11-12.24-18.82-19.91-29.14c-10.38-13.97-21.89-27.32-34.54-40.06
	c-4.49-4.53-9.16-8.87-14.01-13.04c-1.11-0.95-2.02-1.98-2.74-3.11c-4.62-7.23-9.31-12.77-16.9-17.59c-2.03-1.3-2.33-3.89-3.47-5.89
	c-6.29-11.04-15.66-18.7-26.23-25.51c-0.43-0.28-0.39-0.91,0.06-1.14c2.28-1.15,3.94-2.91,4.97-5.26c0.17-0.39,0.67-0.51,1-0.24
	c1.11,0.9,2.17,1.72,3.18,2.45c6.84,4.95,13.42,9.81,19.75,14.6c36.63,27.68,68.21,61.86,94.44,100.64
	c51.91,76.73,75.32,172.74,62.97,265.04c-3.05,22.79-7.77,44.83-14.16,66.12c-11.13,37.08-27.76,71.85-49.9,104.3
	c-30.5,44.7-69.73,83.34-115.73,111.38c-22.74,13.86-46.5,25.18-71.29,33.95c-1.22,0.43-2.23,1.15-3.03,2.15
	c-16.97,21.15-33.98,42.25-51.03,63.3c-0.19,0.23-0.54,0.22-0.71-0.01l-17.98-24.21c-0.35-0.47-0.94-0.7-1.51-0.59
	c-26.77,5.28-54.18,6.44-81.16,2.79c-5.94-0.81-11.81-1.64-17.6-2.49c-0.91-0.14-1.82,0.25-2.36,0.99l-17.19,23.7
	c-0.21,0.29-0.42,0.29-0.64,0.01c-16.75-21.21-33.56-42.3-50.44-63.25c-0.83-1.03-1.82-1.76-2.98-2.2
	c-13.4-5.09-25.57-10.37-36.52-15.85c-20.76-10.39-40.48-21.74-58.77-35.24c-43.11-31.81-78.41-70.68-105.92-116.62
	c-3.46-5.79-6.73-11.64-9.8-17.55C10.58,549.29-3.97,477.24,0.93,405.32c1.18-17.37,3.88-35.38,8.1-54.04
	c11.29-49.93,31.56-97.19,60.85-138.96c28-39.92,61.41-73.85,100.24-101.79c3.61-2.59,7.16-4.87,10.67-6.84
	c0.58-0.33,0.71-0.2,0.39,0.38c-0.56,1.02-1.66,1.5-2.44,2.29c-3.14,3.17-6.31,7.55-9.5,13.13c-3.53,6.17-5.62,11.84-6.29,17.03
	c-0.12,0.89-0.52,1.59-1.2,2.1c-1.43,1.07-2.77,2.18-4.03,3.33c-8.07,7.33-17.33,16.05-27.78,26.17
	c-5.22,5.05-9.84,9.86-13.86,14.43c-9.65,10.95-17.84,20.88-24.57,29.78c-9.97,13.17-19.68,28.31-29.12,45.44
	c-20.56,37.32-34.11,78.95-41.24,121.88c-7.97,47.99-4.48,98.13,7.42,145.45c9.59,38.16,25.26,74.08,47.01,107.76
	c19.83,30.71,45.33,59.74,74.38,83.65c15.92,13.12,33.42,24.07,51.96,33.53c2.41,1.23,2.59,0.96,0.53-0.8
	c-8.56-7.3-16.77-15.25-25.49-22.73c-10.22-8.77-19.46-16.75-27.71-23.96c-10.31-9-21.03-19.79-32.15-32.37
	c-36-40.73-62.74-90.02-76.53-142.74c-1.83-6.99-3.5-13.91-5.01-20.75c-3.87-17.5-5.93-36.06-7.08-53.74
	c-1.97-30.37,0.39-60.8,7.07-91.28c3.41-15.55,7.41-30.11,12-43.66c10.73-31.7,25.96-61.66,45.69-89.88
	c10.27-14.69,21.83-29.82,34.67-42.83c1.27-1.28,2.33-2.61,3.19-3.99c0.15-0.23,0.35-0.34,0.62-0.34c0.11,0.01,0.19,0.06,0.26,0.16
	c0.08,0.13,0.11,0.26,0.08,0.4c-3.11,17.77,2.81,36.16,17.9,46.63c0.33,0.23,0.37,0.5,0.11,0.81c-1.81,2.13-3.3,4.53-4.47,7.2
	c-4.38,10.07-5.92,20.74-4.61,32.02c0.75,6.44,1.6,13.21,2.55,20.31c0.65,4.85,0.25,9.12-1.2,12.8c-1.48,3.77-5.18,6.82-9.5,6.13
	c-8.81-1.4-12.27-16.68-13.2-23.76c-0.02-0.18-0.27-0.23-0.36-0.06c-4.71,8.81-7.65,17.94-8.82,27.39
	c-3.38,27.23,14.37,48.86,40.99,52.82c0.41,0.06,0.51,0.27,0.3,0.63c-3.65,6.39-5.73,13.25-6.22,20.6
	c-1.51,22.32,3.88,41.91,16.17,58.77c0.42,0.58,0.67,1.27,0.7,1.98c1.19,24.05,8.36,49.03,29.48,63.05c0.27,0.18,0.4,0.43,0.39,0.76
	c-0.35,18.07-7.19,32.38-20.51,42.93c-0.3,0.23-0.29,0.45,0.04,0.66c9.47,5.92,19.75,8.13,30.84,6.64c0.29-0.04,0.52,0.25,0.41,0.53
	c-0.37,0.9-0.76,1.91-0.86,2.88c-1.67,15.11,5.1,27.9,16.58,37.2c0.17,0.14,0.18,0.39,0.02,0.55c-19.49,18.67-31.75,42.5-33.97,69.1
	c-0.04,0.43-0.24,0.75-0.6,0.98c-8.59,5.3-16.54,11.19-23.84,17.66c-0.16,0.14-0.17,0.38-0.02,0.53l6.47,6.46
	c0.21,0.22,0.44,0.23,0.67,0.02c7.87-6.99,16.47-13.08,25.82-18.26c0.47-0.26,0.77-0.75,0.79-1.29c0.81-20.75,7.8-39.35,20.96-55.79
	c4.63-5.78,9.38-10.4,14.25-13.86c0.79-0.56,1.89-0.06,1.98,0.91c1.76,19.44,11.19,34.48,28.61,43.31c2.49,1.26,5.04,2.07,7.66,2.44
	c0.26,0.03,0.46,0.25,0.48,0.52c0.98,15.07,7.5,26.89,19.55,35.44c5.01,3.55,11.61,5.85,19.81,6.9c0.36,0.05,0.6,0.24,0.72,0.58
	c3.66,10.51,10.47,18.56,20.44,24.13c10.97,6.14,21.92,5.32,33.27,0.89c0.55-0.21,0.53-0.33-0.06-0.35
	c-17.71-0.54-35.29-8.35-44.39-23.84c-1.39-2.37-2.62-4.96-3.7-7.77c-0.15-0.39-0.5-0.68-0.92-0.74c-4.93-0.69-8.82-1.63-11.69-2.83
	c-13.63-5.69-21.79-15.85-24.47-30.48c-0.45-2.45-0.89-4.94-1.33-7.47c-0.06-0.37-0.27-0.62-0.63-0.73
	c-2.77-0.89-5.42-1.93-7.94-3.12c-16.65-7.85-26.03-23.14-25.35-41.66c0.01-0.39-0.23-0.74-0.59-0.88
	c-16.37-6.25-30.44-19.03-28.95-38.08c0.67-8.44,2.73-15.91,4.81-23.96c0.33-1.25,0.1-1.36-0.69-0.33
	c-6.99,9.2-16.54,11.6-27.77,11.49c-0.28,0-0.42-0.33-0.23-0.53c11.65-12.3,14.88-29.86,14.78-46.09c-0.01-0.33-0.16-0.58-0.45-0.74
	c-14.2-7.75-23.13-21.42-26.56-36.99c-1.49-6.77-2.63-14.09-3.42-21.94c-0.34-3.34-2.93-7.08-4.82-10.04
	c-8.42-13.18-12.23-29.1-11.72-44.86c0.2-6.09,1.36-11.2,3.48-15.32c4.5-8.73,15.57-13.44,25.12-15.08c2.81-0.48,2.8-0.85-0.04-1.1
	c-6.24-0.55-12.92,0.55-20.05,3.29c-0.04,0.01-0.07,0-0.08-0.04l-0.11-0.24c-0.05-0.13-0.02-0.23,0.11-0.3
	c5.34-2.63,9.61-5.22,12.8-7.79c4.25-3.41,7.64-7.74,10.18-12.99c0.42-0.87,0.29-0.96-0.38-0.27c-0.73,0.74-1.42,1.51-2.08,2.3
	c-7.67,9.28-21.74,13.22-33.37,11.18c-16.46-2.89-28.23-15.19-30.93-31.65c-0.58-3.52-0.29-7.06-0.53-10.61
	c-0.08-1.17,0.26-1.3,1.01-0.4c8.08,9.63,21.43,8.98,30.2,1.03c9.82-8.9,14.05-22.15,12.83-35.1c-0.22-2.3-0.5-2.31-0.85-0.02
	c-1.36,8.93-4.86,16.3-8.71,24.08c-0.6,1.21-0.81,1.15-0.63-0.19c0.38-2.81,0.77-5.59,0.46-8.33c-2.86-24.69-9.06-50.15,12.86-68.58
	c0.83-0.7,0.7-1.05-0.39-1.06c-9.19-0.05-17.04-5.73-21.23-13.89c-4.82-9.37-4.78-21.73-2.03-32.17c0.47-1.79,0.82-1.77,1.03,0.08
	c0.8,6.91,3.71,12.54,8.72,16.87c6.46,5.58,12.47,2.5,17.44-2.82c0.41-0.44,0.32-0.63-0.28-0.57c-2.18,0.21-4.29,0.26-6.3-0.77
	c-4.51-2.33-7.72-6.12-9.63-11.37c-3.72-10.22-0.45-19.42,5.9-27.6c0.58-0.74,0.82-0.64,0.72,0.29
	c-1.12,10.88,2.45,23.27,12.56,28.88c0.31,0.17,0.67-0.11,0.59-0.45c-3.99-17.34-5.07-37.76,4.12-53.72
	c7.78-13.51,19.37-22.38,34.78-26.6c0.45-0.12,0.55-0.38,0.32-0.79c-8.29-14.44-4.22-29.88,7.77-40.81
	c5.15-4.7,11.57-8.14,19.25-10.31c0.26-0.07,0.52-0.08,0.79-0.01c0.18,0.04,0.23,0.27,0.1,0.39c-10.29,9.34-16.81,22.76-10.87,36.44
	c0.42,0.97,1.48,1.49,2.5,1.24c9.06-2.16,19.42-3.14,27.74,0.55c0.27,0.12,0.58-0.05,0.64-0.34c4.23-22.69,22.2-41.1,43.04-49.31
	c28.23-11.12,62.44-6.39,87.76,8.51c6.83,4.03,13.53,8.77,20.09,14.24c0.28,0.24,0.52,0.2,0.71-0.11
	c7.45-11.96,17.9-19.18,31.35-21.65c24.84-4.56,47.2,9.35,59.21,30.07c5.93,10.23,8.55,21.16,7.86,32.78
	c-0.03,0.5,0.2,0.68,0.69,0.55c5.57-1.55,11.06-2.05,16.49-1.51c3.67,0.37,6.66,0.5,8.95,0.41c9.6-0.41,17.82-4.16,24.65-11.26
	c0.45-0.47,0.69-0.37,0.72,0.28c0.06,1.52-0.89,2.88-1.22,3.88c-2.63,7.91-8.39,12.59-17.29,14.04c-7.05,1.15-14.83-0.56-21.72-1.96
	c-2.21-0.45-4.97-0.49-8.26-0.13c-1.58,0.17-2.62,1.01-3.13,2.52l-0.5,1.5c-0.47,1.38,0,1.86,1.4,1.45
	c9.91-2.93,22.4-1.06,32.89,0.86c14.04,2.57,25.24,9.29,33.6,20.16c6.02,7.84,8.23,18.36,7.9,28.18c-0.03,1.18-0.22,1.2-0.57,0.07
	c-1.19-3.94-2.06-8.1-4-11.8c-5.06-9.67-11.73-17.16-20.02-22.48c-13.82-8.86-29.67-10.62-44.26-2.57c-0.75,0.41-0.7,0.57,0.15,0.47
	c16.71-1.91,31.15,2.19,43.34,12.29c13.71,11.37,20.58,28.46,22.52,46.31c0.05,0.44,0.54,0.68,0.92,0.44
	c10.48-6.83,12.92-21.31,10.47-32.59c-0.13-0.61,0.01-0.68,0.44-0.23c4.39,4.7,7.24,9.75,8.54,15.16
	c2.84,11.86-1.21,24.07-12.48,29.71c-2.73,1.37-5.84,1.91-9.33,1.63c-6.16-0.5-11.09-3.3-14.8-8.41c-0.64-0.88-0.77-0.81-0.39,0.21
	c2.89,7.76,8.14,13.12,15.74,16.09c12.8,4.99,25.17-1.9,30.15-14.17c0.54-1.33,0.88-1.28,1.01,0.15
	c1.15,12.39-0.99,26.97-13.49,32.08c-7.77,3.18-15.39,3.26-22.84,0.24c-0.67-0.27-0.71-0.21-0.11,0.2
	c3.94,2.68,8.01,4.19,12.46,6.06c10.43,4.38,15.49,18.57,16.27,28.83c0.49,6.63-0.03,13.8-1.2,20.47
	c-1.09,6.16-1.74,12.46-1.97,18.9c-0.1,2.93,0.6,5.71,1.29,8.49c0.29,1.14,0.13,1.21-0.49,0.2c-4.9-7.98-8.17-16.02-9.82-24.11
	c-0.59-2.89-0.97-2.87-1.12,0.08c-0.54,10.43,2.17,19.51,8.12,27.25c8.22,10.71,25.13,15.36,34.58,3.63
	c0.29-0.35,0.45-0.3,0.48,0.15c0.53,6.87-0.28,12.97-2.43,18.28c-4.25,10.53-11.22,17.72-20.91,21.59
	c-6.04,2.41-12.61,3.03-19.72,1.86c-9.31-1.53-17.04-6.47-23.18-14.83c-0.01-0.02-0.03-0.02-0.06-0.01l-0.21,0.14
	c-0.11,0.07-0.13,0.15-0.08,0.26c3.65,7.43,8.82,13.19,15.53,17.29c2.83,1.73,5.71,3.31,8.62,4.75c0.12,0.06,0.17,0.16,0.16,0.29
	c-0.03,0.21-0.14,0.29-0.34,0.22c-4.08-1.27-8.13-2.63-12.45-2.98c-3.39-0.27-6.5-0.4-9.35-0.38c-1.73,0.01-1.77,0.28-0.12,0.81
	c1.7,0.55,3.49,1.02,5.37,1.43c3.72,0.81,7.45,2.38,11.2,4.72c9.07,5.65,12.33,14.9,12.34,25.47c0.01,14.03-2.86,27.16-8.61,39.4
	c-2.24,4.76-7.09,10.65-7.79,16.89c-0.64,5.63-1.63,11.76-2.97,18.39c-3.32,16.45-12,30.83-26.67,38.18
	c-0.35,0.17-0.58,0.53-0.59,0.93c-0.35,14.16,1.82,28.23,9.53,40.23c1.47,2.29,3.09,4.24,4.86,5.85c0.77,0.7,0.64,1.06-0.41,1.07
	c-3.6,0.02-7.45,0.06-11.01-0.76c-6.47-1.49-12.03-5.01-16.67-10.57C539.72,539.37,539.6,539.43,539.73,540.01z M295.21,76.63
	c-23.65,28.1-17.61,73.58,11.38,95.95c0.15,0.11,0.18,0.08,0.11-0.09c-0.11-0.29-0.05-0.34,0.19-0.15h0.01v-0.01
	c-1.94-2.29-3.92-4.88-5.93-7.76c-14.33-20.52-17.92-50.98-3.36-72.95c10.4-15.7,24.99-25.53,43.77-29.49
	c10.05-2.12,20.4-2.3,31.05-0.54c14.04,2.32,28.72,9.7,38.63,20.8c0.19,0.21,0.35,0.19,0.5-0.04c0.07-0.1,0.07-0.2,0-0.31
	c-6.17-8.89-14.55-17.21-24.05-22.22C356.35,43.4,318,49.56,295.21,76.63z M475.77,78.97c1.63,9.42-1.74,18.97-10.54,22.9
	c-5.04,2.25-10.76-0.67-12.16-5.98c-0.91-3.45-0.13-6.75,2.33-9.9c1.07-1.37,0.8-1.72-0.8-1.05c-6.53,2.74-9.34,10.23-5.36,16.12
	c3.17,4.69,7.63,7.19,13.4,7.5c6.83,0.37,13.7-4.5,17.46-10.34c9.15-14.19,5.77-30.46-7.25-40.49c-7.56-5.83-16.51-7.72-26.85-5.65
	c-7.9,1.58-14.06,6.08-18.47,13.5c-0.37,0.62-0.25,0.73,0.34,0.32c1.46-1,2.61-2.39,4.07-3.37c11.91-8.01,28.3-5.24,37.93,5.06
	C473.08,71.03,475.05,74.82,475.77,78.97z M359.62,134.43c2.13,0.42,2.3,0.02,0.49-1.2c-9.74-6.58-13.94-20.7-7.01-31.15
	c3.41-5.15,10.18-9.09,16.73-9.2c9.39-0.15,16.53,4.24,21.41,13.17c2.19,4.01,2.97,8.26,2.35,12.73c-0.05,0.36,0.28,0.67,0.64,0.58
	c0.63-0.16,1.09-0.54,1.39-1.14c4.28-8.66,2.53-18.08-4.3-24.81c-6.77-6.67-15.42-9.02-25.93-7.05
	c-11.4,2.14-20.81,11.68-22.23,23.21C341.87,120.05,348.67,132.28,359.62,134.43z M309.37,108.59c1.7,0.82,2.99,2.03,3.88,3.63
	c0.12,0.21,0.4,0.24,0.57,0.07l3.8-3.91c0.42-0.43,0.38-1.12-0.08-1.5c-1.23-1.02-2.25-2.16-3.04-3.43
	c-0.49-0.79-1.01-0.8-1.54-0.04c-0.97,1.38-2.19,2.52-3.67,3.42C308.61,107.24,308.66,108.24,309.37,108.59z M229.63,105.59
	c-23.39,8.13-35.02,33.1-25.44,56.15c2.41,5.78,6.37,10.84,11.89,15.19c11.33,8.93,28.89,10.1,40.09,0.36
	c0.27-0.23,0.3-0.5,0.1-0.79c-0.21-0.31-0.61-0.42-0.95-0.25c-11.01,5.32-21.41,5.48-31.2,0.49c-10.54-5.37-17.11-15.47-17.53-27.28
	c-0.56-15.7,10.63-29.31,25.51-33.47c8.03-2.24,15.37-2.64,22.01-1.2c3.56,0.77,7.95,2.67,10.45,5.48c0.59,0.66,1.18,1.27,1.77,1.83
	c1.11,1.07,1.37,0.89,0.78-0.53c-3.43-8.16-9.08-15.91-18.06-17.74C243.02,102.6,236.55,103.19,229.63,105.59z M428.33,117.18
	c2.84-0.12,5.05-2.65,4.92-5.66c-0.14-3-2.55-5.33-5.39-5.21c-2.84,0.12-5.05,2.65-4.92,5.66
	C423.08,114.98,425.49,117.31,428.33,117.18z M488.53,116.74c-0.32-0.09-0.56-0.35-0.62-0.68l-0.37-1.99
	c-0.12-0.69-0.97-0.96-1.46-0.47l-1.44,1.43c-0.24,0.23-0.59,0.31-0.91,0.2l-1.91-0.68c-0.66-0.24-1.31,0.36-1.13,1.04l0.51,1.96
	c0.09,0.32-0.02,0.66-0.28,0.88l-1.54,1.31c-0.54,0.45-0.34,1.32,0.33,1.5l1.96,0.54c0.32,0.09,0.56,0.35,0.62,0.68l0.37,1.99
	c0.12,0.69,0.97,0.96,1.46,0.47l1.44-1.43c0.24-0.23,0.59-0.31,0.91-0.2l1.91,0.68c0.66,0.24,1.31-0.36,1.13-1.04l-0.51-1.96
	c-0.09-0.32,0.02-0.66,0.28-0.88l1.54-1.31c0.54-0.45,0.34-1.32-0.33-1.5L488.53,116.74z M450.77,134.92
	c0.2,1.07,0.02,2.03-0.54,2.87c-0.1,0.15-0.09,0.34,0.02,0.48c0.15,0.19,0.35,0.3,0.58,0.34c0.27,0.05,0.51-0.02,0.72-0.19
	c1.57-1.31,3.35-1.28,5.34,0.09c0.48,0.33,1.13,0,1.16-0.58l0.17-3.46c0.02-0.38,0.2-0.66,0.55-0.83l1.38-0.68
	c0.27-0.14,0.42-0.36,0.45-0.66c0.13-1.47-1.09-2.5-2.5-2.43c-1.27,0.07-2-0.53-2.2-1.8c-0.18-1.09-1.2-1.9-2.24-2.17
	c-0.41-0.11-0.83,0.16-0.9,0.58c-0.42,2.71-1.83,4.01-4.23,3.9c-0.43-0.02-0.67,0.19-0.7,0.62l-0.04,0.54
	c-0.03,0.35,0.09,0.63,0.35,0.86l2.4,2.12C450.66,134.62,450.74,134.76,450.77,134.92z M216.83,151.03l0.26,0.02
	c0.04,0,0.07-0.03,0.07-0.06c0.17-6.87,2.94-12.28,8.31-16.22c11.98-8.8,28.24-4.18,35.11,8.16c0.72,1.29,0.91,1.22,0.56-0.22
	c-2.37-9.7-11.14-15.69-21.04-15.68c-6.11,0.01-11.45,2.02-16.02,6.04c-5.1,4.49-7.54,10.46-7.31,17.89
	C216.77,151,216.79,151.02,216.83,151.03z M332.93,147.66c4.54-2.69,5.97-8.66,3.19-13.35c-2.77-4.69-8.7-6.32-13.24-3.64
	c-4.54,2.69-5.97,8.66-3.19,13.35C322.47,148.71,328.4,150.34,332.93,147.66z M190.39,140.45c1.39-2.67,2.75-5.49,4.1-8.45
	c0.3-0.67-0.15-1.43-0.88-1.49c-7.07-0.57-6.67,8.41-5.25,12.91c0.3,0.94,0.59,0.94,0.87,0
	C189.56,142.28,189.95,141.29,190.39,140.45z M440.6,171.53c0.35-13.17-4.51-23.62-14.57-31.35c-14.07-10.82-34.42-8.23-46.1,4.81
	c-6.11,6.82-9.13,14.86-9.05,24.12c0,0.48-0.48,0.82-0.94,0.66c-12.95-4.65-24.38-11.88-34.29-21.69c-0.62-0.61-1.24-0.61-1.86,0.01
	l-0.27,0.28c-1.04,1.05-1.05,2.11-0.04,3.19c10.37,10.97,22.66,18.64,36.85,22.99c0.7,0.21,1.23,0.78,1.4,1.5
	c0.55,2.33,1.39,4.6,2.53,6.79c7.76,14.86,23.32,22.87,39.61,18.75c10.54-2.67,18.33-8.74,23.37-18.21
	c1.02-1.91,1.34-4.04,2.22-5.96c0.13-0.3,0.36-0.48,0.68-0.55c7.38-1.51,13.49-3.95,18.34-7.32c7.71-5.37,14.9-12.95,22.92-17.68
	c15.25-9,35.35-10.05,51.76-3.62c11.51,4.51,19.31,12.62,23.38,24.32c1.26,3.64,1.3,7.36,1.42,11.22c0,0.14,0.06,0.25,0.18,0.33
	c0.09,0.05,0.18,0.07,0.28,0.06c0.19-0.03,0.32-0.13,0.39-0.32c1.68-4.94,1.77-10.02,0.28-15.25
	c-3.68-12.87-15.25-22.23-27.58-26.16c-17.38-5.54-34.12-4.4-50.21,3.43c-2.07,1.01-4.35,2.52-6.14,3.92
	c-4.25,3.34-8.94,7.25-14.07,11.73c-5.19,4.53-11.81,8.01-19.88,10.46C440.79,172.12,440.59,171.97,440.6,171.53z M259.22,172.86
	c4.97,0.31,9.26-3.7,9.58-8.94c0.32-5.24-3.45-9.74-8.42-10.04c-4.97-0.31-9.26,3.7-9.58,8.94
	C250.48,168.06,254.25,172.56,259.22,172.86z M531.57,160.89c0,1.09,0.94,1.94,2.02,1.82l0.95-0.1c0.67-0.07,1.25-0.51,1.5-1.14
	l0.68-1.69c0.45-1.1-0.26-2.33-1.44-2.5l-1.63-0.23c-1.1-0.15-2.09,0.71-2.09,1.82L531.57,160.89z M512.33,163.7
	c1.19,0.51,2.66-0.23,3.28-1.66c0.62-1.44,0.16-3.02-1.03-3.53c-1.19-0.51-2.66,0.23-3.28,1.66
	C510.68,161.6,511.14,163.18,512.33,163.7z M281.02,183.88c2.56,0.65,5.21-1.07,5.91-3.85c0.71-2.78-0.8-5.54-3.37-6.2
	c-2.56-0.65-5.21,1.07-5.91,3.85C276.94,180.46,278.45,183.23,281.02,183.88z M494.72,183.89c0-4.28-3.47-7.75-7.75-7.75
	c-4.28,0-7.75,3.47-7.75,7.75s3.47,7.75,7.75,7.75C491.25,191.64,494.72,188.17,494.72,183.89z M328.79,213.44
	c1.59-7.39,6.13-12.06,13.63-14.03c1.22-0.33,1.23-0.67,0.02-1.04c-7.49-2.29-12.18-7.63-14.08-16.03
	c-0.25-1.15-0.64-1.19-1.16-0.14c-0.02,0.05-0.13,0.42-0.33,1.11c-2.2,7.54-6.91,12.6-14.12,15.19c-1.17,0.42-1.15,0.78,0.05,1.09
	c7.86,1.99,12.74,6.61,14.63,13.88C327.92,215.38,328.38,215.37,328.79,213.44z M511.31,190.13c1.6-0.06,2.84-1.57,2.77-3.37
	c-0.07-1.8-1.42-3.21-3.02-3.15c-1.6,0.06-2.84,1.57-2.77,3.37C508.36,188.78,509.71,190.19,511.31,190.13z M544.3,192.42
	c1.72-0.59,2.6-2.59,1.96-4.46c-0.64-1.87-2.56-2.91-4.28-2.32c-1.72,0.59-2.6,2.59-1.96,4.46
	C540.66,191.97,542.58,193.01,544.3,192.42z M523.99,195.81c1.43-0.08,2.52-1.53,2.43-3.23c-0.1-1.7-1.33-3.02-2.76-2.94
	c-1.43,0.08-2.52,1.53-2.43,3.23C521.33,194.56,522.56,195.88,523.99,195.81z M230.17,231.97c0.65-0.19,0.64-0.31-0.04-0.35
	c-7.44-0.43-13.76-2.67-18.48-8.33c-7.99-9.56-2.96-20.81,6.55-26.5c0.75-0.45,0.69-0.71-0.18-0.8c-8.66-0.87-15.7,6.18-16.67,14.39
	c-1.09,9.26,2.13,15.94,9.68,20.03C216.7,233.49,223.8,233.81,230.17,231.97z M195.69,206.27c0-3.89-3.15-7.04-7.04-7.04
	c-3.89,0-7.04,3.15-7.04,7.04c0,3.89,3.15,7.04,7.04,7.04C192.54,213.31,195.69,210.16,195.69,206.27z M591.74,212.75
	c7.69,1.06,15.97-2.35,17.79-10.19c0.21-0.9,0.06-0.97-0.47-0.21c-3.95,5.76-10.78,9.33-17.32,10.32c-0.02,0-0.03,0.02-0.03,0.04
	C591.71,212.73,591.72,212.75,591.74,212.75z M344.39,245.48c1.35,0.53,2.63,1.25,3.86,2.14c3.69,2.69,7.25,5.23,10.68,7.62
	c2.63,1.84,4.89,4.07,7.59,5.8c0.3,0.19,0.61,0.21,0.92,0.04c2.29-1.23,3.97-2.56,5.04-4c1.99-2.71,0.55-7.48-1.29-9.91
	c-1.79-2.37-4.31-4.7-7.57-7c-8.92-6.28-18.89-11.76-29.9-16.45c-13.82-5.88-28.49-11.25-44-16.1c-5.13-1.6-10.27-3.04-15.42-4.32
	c-1.89-0.47-3.24-0.3-4.89,0.49c-7.41,3.55-14.76,7.2-22.06,10.93c-0.61,0.31-0.58,0.54,0.1,0.68c23.47,4.79,45.3,11.68,65.5,20.69
	c14.81,6.61,28.19,15.04,41.9,23.39c2.57,1.57,4.39,3.65,6.69,5.36c1.09,0.81,1.66,0.54,1.73-0.81c0.06-1.2-0.54-2.41-1.79-3.64
	c-5.29-5.17-11.03-10.06-17.22-14.67C343.7,245.31,343.74,245.23,344.39,245.48z M414.13,245.85c0.07,0.12,0.05,0.22-0.07,0.3
	c-6.51,4.23-12.62,8.86-18.33,13.91c-1.12,0.99-1.74,2.44-1.69,3.93l0.01,0.47c0.05,1.39,0.65,1.7,1.81,0.93
	c19.31-12.85,37.53-22.78,54.67-29.8c13.25-5.43,25.84-9.91,37.78-13.44c8.15-2.41,16.05-4.69,23.7-6.82
	c0.93-0.27,0.96-0.6,0.07-0.99c-7.69-3.49-15.43-7.06-23.22-10.72c-1.41-0.66-2.9-0.77-4.47-0.32
	c-10.77,3.09-23.11,7.11-37.01,12.04c-12.18,4.31-24.11,9.4-35.78,15.26c-2.69,1.35-5.44,2.86-8.23,4.55
	c-6.59,3.98-20.3,10.78-19.44,20.13c0.23,2.56,2.05,4.67,5.46,6.33c0.39,0.19,0.75,0.16,1.1-0.1c2.92-2.23,5.48-4.68,8.63-6.69
	c4.86-3.11,9.78-6.18,14.77-9.22c0.04-0.02,0.07-0.01,0.09,0.02L414.13,245.85z M371.3,213.62c-1.28-0.48-2.25-1.78-3.05-2.83
	c-0.33-0.43-0.62-0.41-0.88,0.06c-1.15,2.06-2.66,3.63-4.54,4.72c-0.63,0.37-0.64,1.27-0.02,1.66c1.87,1.17,3.41,2.55,4.6,4.15
	c0.57,0.76,1.75,0.59,2.08-0.3c0.55-1.45,1.52-2.37,2.93-2.75c0.3-0.08,0.53-0.32,0.59-0.63
	C373.47,215.58,372.9,214.22,371.3,213.62z M532.43,221.79c2.58,1.06,5.58-0.3,6.69-3.04c1.11-2.73-0.08-5.8-2.66-6.85
	c-2.58-1.06-5.58,0.3-6.69,3.04C528.66,217.67,529.85,220.74,532.43,221.79z M117.11,234.71c2.56,1.46,5.88,0.49,7.4-2.18
	c1.52-2.67,0.67-6.02-1.89-7.48c-2.56-1.46-5.88-0.49-7.4,2.18C113.7,229.9,114.55,233.25,117.11,234.71z M311.82,242.23
	c-16.05-6.57-32.18-11.94-48.38-16.1c-0.94-0.24-2.07-0.3-2.96,0.14c-4.06,2.03-8.08,4.07-12.06,6.13
	c-0.69,0.35-0.65,0.54,0.13,0.56c2.46,0.05,4.97,0.34,7.54,0.88c15.86,3.3,32.2,7.46,49.02,12.49
	c16.31,4.88,31.64,11.15,45.99,18.82c2.46,1.31,4.78,2.85,6.95,4.62c0.48,0.39,1.2,0.08,1.23-0.54c0.14-2.86-4.55-6.12-6.83-7.33
	C339.05,254.79,326.21,248.12,311.82,242.23z M417.13,260.84c13.05-5.73,26.34-10.6,39.87-14.61c17.48-5.17,35.39-9.86,53.72-14.06
	c0.51-0.11,0.54-0.3,0.08-0.56c-2.73-1.53-11.29-6.03-13.98-5.35c-6.83,1.71-14.04,3.88-21.65,6.49
	c-17.65,6.07-34.76,12.91-51.32,20.52c-9.58,4.4-17.49,9.11-26.06,15.47c-0.2,0.15-0.24,0.43-0.09,0.64
	c0.23,0.31,0.53,0.42,0.9,0.32c3.13-0.82,6.49-2.38,9.28-4.07C410.79,263.86,413.87,262.27,417.13,260.84z M221.75,281.57
	c-5.59-2.03-11.17-4.5-16.75-7.43c-13.89-7.29-30.06-19.32-21.27-37.67c0.84-1.75,2.15-3.11,3.26-4.67
	c0.55-0.77,0.39-0.97-0.48-0.59c-6.19,2.7-12.34,6.35-16.46,11.76c-10.85,14.25,9.35,29.37,19.54,35.72
	c9.58,5.97,20.68,11.11,33.31,15.42c10.53,3.59,21.17,6.55,31.9,8.88c22.62,4.91,46.88,8.51,72.78,10.78
	c28.83,2.53,56.03,3.06,81.6,1.6c34.2-1.95,68.5-6.31,102.6-14.46c14.67-3.51,28.86-8.42,42.58-14.73
	c12.37-5.68,25.83-14.11,32.61-25.39c7.73-12.86-2.22-19.77-12.05-25.68c-0.41-0.25-0.54-0.14-0.41,0.32
	c2.47,8.45,2.77,16.62-2.97,23.86c-2.47,3.12-5.18,5.78-8.13,7.99c-14.64,10.96-35.24,17.81-53.86,22.68
	c-5.66,1.47-12.22,2.91-19.67,4.3c-23.02,4.29-46.21,7.44-69.56,9.45c-30.06,2.59-60.21,2.36-90.44-0.71
	c-13.18-1.33-27.51-3.13-42.98-5.38C263.63,294.23,241.91,288.88,221.75,281.57z M549.08,249.55c3.41,0.71,6.77-1.58,7.5-5.11
	c0.73-3.53-1.44-6.97-4.85-7.67c-3.41-0.71-6.77,1.58-7.5,5.11C543.5,245.41,545.67,248.85,549.08,249.55z M349.82,273.36
	c1.65,0.09,3.3,0.64,4.96,1.66c0.55,0.34,0.97,0.23,1.27-0.34c0.25-0.47,0.14-1.06-0.26-1.41c-1.87-1.65-4.12-3.14-6.75-4.47
	c-6.05-3.06-11.8-5.81-18.14-8.03c-8.44-2.96-16.32-5.96-25.28-8.19c-6.21-1.55-12.48-3.2-18.8-4.95
	c-5.52-1.53-15.44-3.58-29.77-6.17c-1.15-0.21-2.24-0.05-3.26,0.46c-5.24,2.64-10.66,5.48-16.26,8.53
	c-0.68,0.37-0.63,0.59,0.14,0.68c7.31,0.83,13.87,2.15,21.28,2.85c3.33,0.31,6.87,0.82,10.62,1.52c15.47,2.87,30.25,5.73,44.32,8.59
	c6.76,1.37,17.87,4.32,33.33,8.84C348.03,273.17,348.9,273.31,349.82,273.36z M417.81,271.21c5.43-1.03,10.79-2.27,16.09-3.71
	c6.97-1.89,12.31-3.2,16.02-3.93c16.59-3.27,33.24-6.27,49.93-9.01c1.32-0.22,2.61-0.07,3.9-0.48c0.84-0.27,1.77-0.43,2.78-0.5
	c2.69-0.19,5.36-0.72,8.03-1.59l7.04-1.01c0.79-0.11,0.85-0.38,0.16-0.8c-5.02-3.04-9.89-5.7-14.62-7.98
	c-1.52-0.73-3.37-0.87-5.03-0.63c-4.22,0.62-8.64,1.42-13.27,2.39c-11.25,2.37-26.13,6.24-44.64,11.62
	c-14,4.07-29.33,9.59-41.89,16.67c-0.77,0.43-1.18,1.08-1.23,1.93c-0.03,0.6,0.52,1.07,1.11,0.94c1.75-0.37,3.58-0.22,5.13-0.66
	C410.87,273.45,414.36,272.36,417.81,271.21z M209.82,253.59c1.71,0.59,3.63-0.49,4.3-2.4c0.66-1.92-0.19-3.95-1.91-4.54
	c-1.71-0.59-3.63,0.49-4.3,2.4C207.26,250.97,208.11,253,209.82,253.59z M632.44,255.74c2,0.24,3.84-1.36,4.1-3.57
	c0.27-2.21-1.14-4.19-3.15-4.43c-2-0.24-3.84,1.36-4.1,3.57C629.03,253.52,630.44,255.5,632.44,255.74z M106.85,269.3
	c0-4.35-3.52-7.87-7.87-7.87c-4.35,0-7.87,3.52-7.87,7.87c0,4.35,3.52,7.87,7.87,7.87C103.33,277.17,106.85,273.65,106.85,269.3z
	 M220.21,269.64c1.74,1.77,4.66,1.72,6.51-0.1c1.85-1.82,1.94-4.74,0.19-6.51c-1.74-1.77-4.66-1.72-6.51,0.1
	C218.56,264.95,218.47,267.87,220.21,269.64z M245.21,270.22c4.41,0.51,8.86,1.16,13.35,1.95c12.01,2.14,24.73,4.28,38.15,6.43
	c9.93,1.59,24.64,4.55,44.12,8.9c3.72,0.83,7.27,1.95,10.65,3.38c0.63,0.27,0.95,0.06,0.98-0.62l0.23-5.84
	c0.02-0.44-0.33-0.81-0.77-0.83c-0.93-0.03-1.86-0.21-2.81-0.52c-8.65-2.85-17.16-5.25-25.53-7.2c-22.74-5.31-44.84-9.36-67.8-13.83
	c-1.19-0.23-2.23,0.05-3.14,0.86c-2.45,2.19-5.03,4.16-7.76,5.91C243.67,269.58,243.78,270.05,245.21,270.22z M499.62,262.38
	c-26.88,5.37-53.91,10.66-80.28,17.35c-5.36,1.37-10.58,3.27-15.8,4.69c-0.14,0.04-0.23,0.18-0.21,0.33l0.92,5.74
	c0.03,0.15,0.18,0.25,0.33,0.2c14.69-4.29,29.35-7.03,44.06-9.94c6.09-1.21,12.71-2.38,19.84-3.51c15.23-2.43,30.38-5.06,45.45-7.89
	c0.13-0.03,0.16-0.2,0.05-0.28l-10.11-6.72C502.54,261.88,501.12,261.89,499.62,262.38z M667.63,269.16
	c-1.38-3.84-5.68-5.81-9.62-4.39c-3.93,1.41-6,5.67-4.61,9.51c1.38,3.84,5.68,5.81,9.62,4.39
	C666.95,277.26,669.02,273,667.63,269.16z M381.98,274.46c7.22,2.97,11,10.34,12.14,17.94c0.06,0.43,0.31,0.63,0.74,0.62l1.92-0.06
	c0.34-0.01,0.61-0.27,0.64-0.61c0.92-11.42-12.92-34.63-26.99-23.82c-7.15,5.49-10.77,14.71-11.75,23.76
	c-0.05,0.51,0.17,0.75,0.68,0.73l1.74-0.07c0.6-0.03,0.96-0.33,1.08-0.92C363.96,282.97,371.12,270,381.98,274.46z M622.22,329.67
	c-17.43,6.58-34.8-1.06-45.62-15.24c-5.03-6.59-8.93-13.82-11.7-21.7c-0.88-2.51-1.26-2.44-1.13,0.22c0.2,4.16,1.38,8.56,3.53,13.19
	c6.27,13.5,16.6,24.83,30.92,28.22c9.07,2.15,17.16,0.77,24.29-4.12C623.98,329.23,623.89,329.04,622.22,329.67z M132.63,329.81
	c11.84,8.67,27.57,6.62,39.05-2.2c10.65-8.19,18.74-21.28,19-34.9c0.03-1.39-0.15-1.41-0.52-0.08
	c-4.09,14.47-13.09,27.45-26.11,34.71c-10.04,5.59-20.43,6.27-31.18,2.04C131.68,328.91,131.6,329.06,132.63,329.81z M81.71,296.89
	c0.05-0.93-0.67-1.71-1.59-1.76l-1-0.05c-0.93-0.05-1.72,0.66-1.76,1.59l-0.07,1.3c-0.05,0.93,0.67,1.71,1.59,1.76l1,0.05
	c0.93,0.05,1.72-0.66,1.76-1.59L81.71,296.89z M224.99,306.18c2.45,15.2,2.06,31.2-1.61,46.09c-0.37,1.51-0.21,1.57,0.49,0.18
	c6.89-13.77,9.48-28.4,7.75-43.89c-0.03-0.27-0.17-0.44-0.43-0.53l-5.95-2.06C225.11,305.92,224.97,306.04,224.99,306.18z
	 M533.48,355.66c-5.17-15.48-6.7-31.76-4.58-48.84c0.03-0.2-0.19-0.35-0.37-0.26c-1.76,0.94-3.67,1.53-5.73,1.76
	c-0.35,0.04-0.62,0.33-0.64,0.68c-0.87,17.06,2.77,32.67,10.94,46.83C533.79,357.03,533.92,356.97,533.48,355.66z M242.81,313.18
	c1.04,15.31-1.48,26.86-7.11,40.99c-0.25,0.62-0.1,0.73,0.43,0.33c11.95-8.96,25.32-12.21,40.1-9.76
	c15.19,2.53,29.17,4.98,41.93,7.37c3.24,0.61,6.67,1.47,10.28,2.56c15.72,4.76,26.7,15.5,30.94,31.69
	c1.18,4.51,1.78,10.46,1.81,17.85c0.09,23.16,0,43.78-0.25,61.85c-0.11,8.14-1.04,18.07-2.79,29.79
	c-1.36,9.09,4.02,17.94,13.14,20.37c8.58,2.29,17.53,0.6,23.19-6.4c6.58-8.13,2.43-16.67,1.83-25.81
	c-0.46-6.99-0.7-14.87-0.71-23.62c-0.04-20.15-0.05-39.87-0.03-59.16c0.01-7.35,1.04-13.75,3.11-19.2
	c6.55-17.27,20.18-26.13,38.33-29.64c12.06-2.34,24.41-4.6,37.05-6.78c6.89-1.19,12.83-1.69,17.82-1.51
	c9.17,0.33,18.07,3.21,26.71,8.65c0.83,0.52,1.03,0.34,0.61-0.54c-5.67-12.02-8.22-24.81-7.67-38.38c0.01-0.37-0.33-0.65-0.68-0.56
	c-53.44,12.49-107.46,17.34-162.06,14.53c-35.83-1.85-70.47-6.44-105.34-15.16C242.99,312.53,242.78,312.71,242.81,313.18z
	 M655.71,362.53c9.8,1.63,16.92,9.65,18.21,18.99c0.47,3.39,1.05,3.41,1.74,0.06c0.24-1.14,0.5-2.33,0.78-3.56
	c1.96-8.59,8.61-13.31,16.77-15.88c0.9-0.29,0.9-0.56-0.01-0.82c-10.23-2.95-15.86-9.81-16.89-20.59
	c-0.56-5.91-0.96-13.63-1.21-23.18c0-0.01,0-0.01-0.01-0.01h-0.25c-0.17-0.01-0.26,0.07-0.26,0.24c-0.31,7.97-0.69,14.9-1.12,20.79
	c-0.94,12.9-6.2,18.4-17.84,23.24C654.81,362.15,654.84,362.39,655.71,362.53z M86,322.04c-0.13-2.81-0.33-2.81-0.62-0.02
	c-0.29,2.88-0.45,5.67-0.48,8.37c-0.11,10.68-0.38,21.27-0.81,31.78c-0.48,11.72-3.78,23.1-14.51,29.03
	c-3.22,1.78-6.42,3.26-9.59,4.43c-0.72,0.27-0.7,0.48,0.05,0.64c13.15,2.74,21.21,10.17,24.18,22.29c0.63,2.57,0.85,5.17,1.52,7.61
	c0.19,0.69,0.36,0.69,0.52-0.01c1.73-7.51,3.18-16.55,8.99-22.19c4.47-4.34,9.71-6.43,15.63-8.07c0.61-0.17,0.61-0.33,0-0.49
	c-10.74-2.81-17.97-9.22-21.03-19.86c-1.29-4.46-2-8.66-2.15-12.59C87.19,349.57,86.62,335.93,86,322.04z M253.78,363.42
	c-5.75,0.97-10.89,3.18-15.42,6.62c-12.57,9.54-19.44,22.52-20.63,38.95c-1.4,19.3,3.9,36.53,15.91,51.69
	c2.67,3.37,5.87,6.83,9.6,10.38c11,10.48,22.52,20.85,28.38,34.93c3.22,7.74,4.66,15.41,6.07,23.91c0.01,0.09-0.02,0.14-0.11,0.16
	l0,0c-0.13,0.03-0.21-0.01-0.24-0.13c-7.1-21.79-22.01-37.99-40.98-51.06c-0.22-0.15-0.24-0.12-0.06,0.07
	c10.87,11.61,20.15,24.46,27.84,38.55c9.25,16.93,12.75,35.4,12.41,55.06c-0.01,0.94,0.14,0.97,0.46,0.08
	c4.19-11.49,13.6-21.98,23.46-28.5c9.8-6.48,22.03-10.45,34.53-12.4c0.48-0.07,0.55-0.29,0.22-0.64c-3.96-4.15-6.83-8.79-8.62-13.92
	c-2.4-6.88-1.41-15.63,0.29-22.84c2.55-10.87,4.82-21.04,6.83-30.51c1.79-8.43,2.93-16.78,3.44-25.04c0.04-0.69-0.13-0.74-0.5-0.17
	c-3.05,4.72-7.48,10.21-12.24,14.27c-0.79,0.67-0.93,0.55-0.44-0.36c5.15-9.55,8.16-19.75,9.03-30.61c0.11-1.29,0.03-2.54-0.22-3.75
	c-0.04-0.18-0.26-0.23-0.37-0.09c-7.45,9.64-17.19,15.93-29.24,18.88c-2.78,0.68-2.9,0.36-0.35-0.95
	c11.34-5.86,18.38-14.2,20.34-26.84c0.08-0.54-0.13-0.7-0.63-0.49c-6.56,2.86-13.98,6.49-20.23,8.11
	c-10.95,2.85-21.87,2.18-32.75-2.01c-1.86-0.71-5.32-2.16-10.38-4.35c-0.27-0.12-0.5-0.3-0.68-0.53c-0.27-0.34-0.59-0.43-0.98-0.27
	c-0.3,0.11-0.49,0.4-0.49,0.72c-0.04,6.11,5.85,12.31,10.43,15.71c0.08,0.06,0.09,0.13,0.04,0.21l-0.15,0.23
	c-0.03,0.05-0.07,0.07-0.12,0.04c-6.83-3.27-12.27-7.99-16.34-14.16c-2.19-3.33-3.33-6.97-4.91-10.49c-0.6-1.34-1.58-2.22-2.94-2.64
	c-3.54-1.08-7.34-1.78-11.4-2.11c-0.25-0.02-0.44-0.22-0.45-0.47c-0.02-0.45,0.06-0.54,0.24-0.28c6.91-1.01,11.93-7.24,16.68-11.87
	c3.33-3.24,7.98-6.14,13.97-8.71c2.65-1.14,7.52-2.58,14.6-4.33c0.94-0.23,2.11,0.12,2.88-0.39c0.28-0.19,0.59-0.29,0.92-0.32
	c3.29-0.29,6.45-0.7,9.48-1.24c1.58-0.29,3.01-0.09,4.58-0.27c1.01-0.11,1.07-0.42,0.18-0.91c-0.48-0.26-1-0.43-1.55-0.5
	c-1.78-0.21-3.48-0.55-5.1-1c-0.03-0.01-0.71-0.11-2.03-0.32c-0.72-0.11-1.46-0.4-2.21-0.86c-0.99-0.59-1.88-0.68-2.66-0.26
	l-4.76-1.26c-6.03-1.44-12.15-1.96-18.34-1.57C256.66,362.66,255.23,362.94,253.78,363.42z M465.46,369.78
	c9.34,1.18,15.54,2.05,18.61,2.62c8.35,1.53,15.82,5.42,22.39,11.69c4.25,4.05,7.35,6.94,9.31,8.69c2.29,2.04,5.16,3.52,8.59,4.43
	c-4.32,0.37-8.49,1.18-12.5,2.41c-1.39,0.43-2.29,1.29-2.69,2.58c-3.28,10.64-10.02,18.65-20.22,24.04
	c-0.15,0.09-0.28,0.06-0.38-0.09l-0.15-0.23c-0.1-0.15-0.08-0.27,0.07-0.37c6.13-4.2,9.68-9.68,10.63-16.44
	c0.13-0.91-0.15-1.07-0.86-0.48c-1.71,1.43-3.54,2.56-5.48,3.4c-15.91,6.87-33.2,9.45-48.61,1.22c-3.85-2.05-7.76-3.51-11.89-4.52
	c-0.49-0.12-0.65,0.06-0.46,0.53c1.1,2.82,1.79,5.86,3.14,8.6c4.41,9.01,11.47,15.41,21.17,19.21c0.45,0.17,0.43,0.25-0.05,0.22
	c-1.71-0.09-3.36-0.34-4.95-0.75c-12.07-3.16-21.77-9.69-29.1-19.59c-0.31-0.41-0.47-0.36-0.48,0.16
	c-0.18,11.64,2.78,22.82,8.13,33.18c1.2,2.33,0.95,2.5-0.76,0.51c-5.86-6.8-10.9-13.35-15.13-19.65c-2.26-3.37-4.46-6.69-6.61-9.96
	c-0.81-1.25-1.19-1.13-1.13,0.36c0.74,18.95,1.29,37.6,1.65,55.95c0.11,5.25,0.33,10.99,1.45,15.94c1.91,8.47,3.72,17.16-1.37,24.56
	c-0.27,0.39-0.17,0.53,0.29,0.42c10.69-2.48,12.97-10.32,11.11-19.93c-0.93-4.82-2.08-9.73-3.45-14.73
	c-0.25-0.93-0.05-1.04,0.6-0.33c3.57,3.93,6.7,8.11,9.37,12.55c7,11.64,4.68,23.46-3.88,33.49c-0.52,0.61-1.12,1.12-1.79,1.52
	c-0.59,0.35-0.54,0.57,0.13,0.68c8.89,1.41,17,3.71,24.35,6.9c14.5,6.3,27.98,18.19,34.67,32.94c0.26,0.57,0.4,0.55,0.41-0.08
	c0.07-4.12,0.23-8.01,0.49-11.68c0.81-11.51,3.58-22.68,8.29-33.52c7.53-17.33,18.2-32.91,30.9-46.95c0.06-0.07,0.06-0.13,0-0.2
	h-0.01c-0.05-0.05-0.1-0.06-0.16-0.02c-3.43,2.67-6.87,5.38-10.3,8.15c-13.57,10.94-24.7,25.7-28.99,42.74
	c-0.03,0.13-0.1,0.18-0.23,0.16h-0.01c-0.13-0.03-0.19-0.1-0.18-0.23c0.59-6.97,2.02-13.93,4.29-20.88
	c5.85-17.98,21.34-29.96,33.6-42.5c14.79-15.13,21.84-33.24,21.14-54.35c-0.27-8.25-1.79-15.53-4.56-21.84
	c-6.21-14.14-19.51-26.35-35.52-27.48c-7.65-0.53-15.55,0.22-23.68,2.26c-5.03,1.26-10.18,2.61-15.46,4.05
	c-0.58,0.16-0.57,0.26,0.03,0.29L465.46,369.78z M121.16,374.33c0-2.48-2.01-4.49-4.49-4.49c-2.48,0-4.49,2.01-4.49,4.49
	c0,2.48,2.01,4.49,4.49,4.49C119.15,378.82,121.16,376.81,121.16,374.33z M480.98,395.23c-0.72,1.31-1.46,2.71-2.22,4.21
	c-2.23,4.39-5.75,7.2-10.57,8.42c-5.61,1.43-10.58,0.64-14.89-2.37c-3.18-2.21-5.79-5.9-7.82-11.06c-0.37-1.5-0.45-3.22-0.24-5.17
	c0.03-0.27-0.25-0.45-0.49-0.32c-0.89,0.51-1.88,1-2.98,1.48c-1.26,0.55-2.07,1.15-2.42,1.82c-0.75,1.4-0.95,3.44-0.58,6.12
	c4.07,7.92,10.2,12.97,18.38,15.16c6.9,1.85,13.44,1.55,19.62-0.9c6.83-2.7,11.76-7.79,14.79-15.26l0.08-5.3
	c0.02-1.19-0.73-2.26-1.85-2.65l-6.19-2.14c-1.06-0.37-1.66,0.01-1.8,1.13L480.98,395.23z M309.33,394.87
	c-1.74,5.61-5.41,9.74-11.01,12.38c-4.29,2.03-8.61,2.1-12.96,0.2c-6.4-2.78-8.98-7.74-11.34-13.93l-0.38-4.6
	c-0.06-0.75-0.46-1.04-1.2-0.87c-2.25,0.52-4.48,1.15-6.7,1.89c-3.05,1.01-1.63,6.68-0.8,8.45c2.51,6.74,7.49,11.55,14.94,14.44
	c6.16,2.39,12.47,2.61,18.92,0.64c8.71-2.67,14.86-7.58,18.43-14.73c0.56-2.57,0.69-4.82,0.38-6.73c-0.07-0.44-0.32-0.83-0.7-1.07
	c-1.76-1.14-3.8-2.15-6.13-3.04c-0.37-0.14-0.59-0.01-0.64,0.38L309.33,394.87z M641.97,395.54c0-3.83-3.11-6.94-6.94-6.94
	c-3.83,0-6.94,3.11-6.94,6.94c0,3.83,3.11,6.94,6.94,6.94C638.86,402.48,641.97,399.37,641.97,395.54z M554.95,480.98
	c0.49,0.28,1.03,0.04,1.64-0.73c11.72-10.67,14.03-26.46,16.68-41.08c0.67-3.7,1.64-7.31,2.91-10.82
	c3.83-10.6,8.52-19.97,5.93-31.58c-0.43-1.92-1.25-3.62-2.44-5.11c-0.19-0.24-0.51-0.31-0.78-0.17
	c-5.41,2.84-9.04,11.65-10.87,17.76c-2.02,6.74-3.8,13.4-5.33,19.98c-0.11,0.46-0.02,0.51,0.29,0.14c1.52-1.84,3.24-3.46,5.15-4.87
	c0.41-0.29,0.84-0.46,1.3-0.49c0.15-0.01,0.26,0.15,0.18,0.28c-4.72,8.02-8.28,16.56-11.08,25.48c-0.3,0.95-0.47,0.93-0.52-0.07
	l-0.23-5.08c-0.01-0.14-0.08-0.22-0.22-0.23l-0.26-0.02c-0.05-0.01-0.07,0.01-0.08,0.06c-0.4,2.12-0.6,4.09-0.61,5.9
	c-0.02,3.15-0.2,6.24-0.54,9.27c-0.37,3.38-0.61,6.48-0.72,9.29C555.2,472.9,555.06,476.93,554.95,480.98z M201.1,466.53
	c0.3-1.47,0.21-2.61-0.28-3.4l-1.84-18.32c-0.01-0.17-0.11-0.26-0.28-0.25l-0.28,0.02c-0.07,0-0.1,0.05-0.09,0.14l0.23,3.99
	c0.01,0.18-0.11,0.34-0.28,0.37l-0.26,0.05c-0.07,0.01-0.11-0.01-0.12-0.08c-1.19-4.31-2.76-8.48-4.7-12.51
	c-2.18-4.51-4.45-9.07-6.82-13.7c-0.14-0.27-0.03-0.6,0.24-0.74c0.22-0.11,0.42-0.08,0.59,0.09c1.6,1.53,3.02,3.03,4.26,4.51
	c0.62,0.74,0.81,0.64,0.58-0.29c-1.43-5.61-2.79-11.23-4.08-16.86c-0.91-3.92-2.97-8.44-6.19-13.56c-0.97-1.54-2.48-2.86-3.87-4.06
	c-0.69-0.58-1.72-0.46-2.25,0.27c-0.96,1.33-1.58,2.82-1.85,4.47c-2.3,13.72,4.91,25.09,8.39,38.02c1.57,5.82,2.19,11.97,3.29,17.85
	c1.34,7.15,3.8,13.56,7.39,19.25c2.32,3.68,5.72,7.06,8.57,10.5c0.51,0.62,0.73,0.53,0.68-0.27L201.1,466.53z M453.17,394.72
	c0.23,2.69,1.32,4.57,3.25,5.65c3.88,2.18,7.55-0.41,9.72-3.68c0.22-0.33,0.17-0.61-0.14-0.86c-0.53-0.42-1.25-0.62-2.17-0.59
	c-3.3-1.5-6.75-1.85-10.34-1.06c-0.14,0.03-0.24,0.09-0.29,0.18C453.14,394.47,453.13,394.59,453.17,394.72z M293.19,394.83
	l-10.79-0.81c-0.3-0.02-0.56,0.2-0.58,0.5l-0.01,0.16c-0.24,3.18,2.17,5.96,5.38,6.2l0.24,0.02c3.21,0.24,6-2.14,6.24-5.33
	l0.02-0.16C293.71,395.12,293.49,394.86,293.19,394.83z M121.36,417.77c1.32-0.01,2.37-1.19,2.36-2.63c-0.01-1.44-1.09-2.6-2.4-2.59
	c-1.32,0.01-2.37,1.19-2.36,2.63C118.97,416.62,120.05,417.78,121.36,417.77z M677.14,423.92c0-3.97-3.21-7.18-7.18-7.18
	c-3.97,0-7.18,3.21-7.18,7.18s3.21,7.18,7.18,7.18C673.93,431.1,677.14,427.89,677.14,423.92z M701.02,431.14
	c1.21-0.03,2.16-1.17,2.12-2.53c-0.04-1.36-1.05-2.44-2.26-2.41c-1.21,0.03-2.16,1.17-2.12,2.53
	C698.8,430.09,699.81,431.17,701.02,431.14z M57.78,435.46c0-1.47-1.2-2.67-2.67-2.67c-1.47,0-2.67,1.2-2.67,2.67
	c0,1.47,1.2,2.67,2.67,2.67C56.58,438.13,57.78,436.93,57.78,435.46z M91.7,472.7c2.15-7.97,5.75-11.67,13.45-14.58
	c0.9-0.35,0.88-0.63-0.05-0.86c-5.74-1.39-10.61-5.19-12.37-10.82c-0.33-1.07-0.66-2.12-0.97-3.16c-0.18-0.57-0.37-0.58-0.56-0.01
	c-1.06,3.11-2.32,6.44-4.73,8.71c-2.51,2.38-5.6,4.16-9.27,5.35c-1.14,0.37-1.13,0.71,0.03,1.02c7.81,2.07,12.34,6.84,13.59,14.3
	C91.05,474.02,91.34,474.03,91.7,472.7z M630.18,460.51c-2.2,9.95-6.96,15.47-16.54,18.64c-0.61,0.2-0.62,0.43-0.03,0.68
	c2.09,0.9,4.6,1.39,6.46,2.56c5.67,3.56,9.06,8.56,10.19,15.01c0.17,0.97,0.39,0.98,0.66,0.03c0.21-0.69,0.4-1.4,0.57-2.13
	c1.27-5.18,3.97-9.22,8.09-12.12c2.09-1.47,4.85-2.36,7.3-3.13c0.61-0.19,0.62-0.4,0.01-0.61c-9.53-3.37-13.95-9-16.18-18.93
	C630.53,459.72,630.35,459.72,630.18,460.51z M135.34,481.67c2.4-0.02,4.32-2.15,4.3-4.75c-0.02-2.6-1.98-4.69-4.38-4.67
	c-2.4,0.02-4.32,2.15-4.3,4.75C130.98,479.6,132.94,481.69,135.34,481.67z M59.59,486.68c2.17,0.04,3.96-1.82,4.01-4.16
	c0.04-2.35-1.68-4.28-3.85-4.31c-2.17-0.04-3.96,1.82-4.01,4.16C55.7,484.71,57.42,486.64,59.59,486.68z M692.5,495.38
	c4.06-1.07,6.46-5.35,5.35-9.55c-1.11-4.21-5.31-6.74-9.37-5.66c-4.06,1.07-6.46,5.35-5.35,9.55
	C684.24,493.92,688.44,496.45,692.5,495.38z M340.48,493.59c-4.13,6.6-5.96,16.42,0.88,21.86c2,1.58,4.42,2.12,6.71,3.1
	c0.66,0.29,0.82,0.11,0.48-0.52c-5.69-10.6-2.93-21.07-1.16-32.38c0.39-2.48-0.1-2.67-1.47-0.57
	C343.99,488.05,342.18,490.88,340.48,493.59z M602.56,513.47c2.37,0.44,4.68-1.29,5.17-3.86c0.48-2.57-1.05-5.02-3.42-5.47
	c-2.37-0.44-4.68,1.29-5.17,3.87C598.66,510.57,600.19,513.02,602.56,513.47z M92.39,512.22c-2.39,7.46-4.43,13.31-10.88,17.85
	c-3.49,2.46-7.13,4.31-10.92,5.56c-0.63,0.21-0.63,0.41,0,0.6c1.55,0.46,3.14,0.72,4.66,1.3c7.9,2.98,13.09,8.34,15.57,16.07
	c0.54,1.66,0.61,3.44,1.16,5.08c0.11,0.33,0.59,0.3,0.66-0.04c0.35-1.67,0.78-3.33,1.31-4.98c2.07-6.47,5.78-11.17,11.15-14.09
	c2.7-1.46,5.94-2.47,8.93-3.44c0.6-0.19,0.6-0.37,0-0.55c-12.21-3.64-18.45-10.92-21.18-23.22c-0.03-0.11-0.08-0.2-0.16-0.27
	c-0.03-0.03-0.06-0.07-0.09-0.11c-0.14-0.2-0.2-0.18-0.19,0.07C92.42,512.11,92.41,512.17,92.39,512.22z M151.8,524.75
	c3.21,0.11,5.91-2.51,6.04-5.86c0.12-3.35-2.39-6.17-5.59-6.29c-3.21-0.11-5.91,2.51-6.04,5.86
	C146.09,521.81,148.6,524.63,151.8,524.75z M265.57,542.21c0.17,0.43,0.27,0.42,0.28-0.05c0.08-3.37-1.1-6.02-2.11-9.12
	c-1.92-5.85-5.12-10.81-9.61-14.87c-1.41-1.28-1.59-1.13-0.54,0.46C258.08,525.36,262.07,533.22,265.57,542.21z M489.47,547.97
	c0.61-1.69,1.15-3.42,1.61-5.17c2.19-8.26,6.79-16.62,11.8-23.71c1.39-1.95,1.21-2.11-0.54-0.47c-8.35,7.85-12.67,17.67-12.95,29.46
	c0,0.01,0,0.03,0.01,0.04c0.03,0.04,0.04,0.04,0.04-0.01c0-0.01,0-0.03,0.01-0.06C489.46,548.02,489.46,548,489.47,547.97z
	 M668.7,522.96c-1.67-3.42-5.86-4.81-9.35-3.11c-3.49,1.7-4.98,5.86-3.31,9.28c1.67,3.42,5.86,4.81,9.35,3.11
	C668.88,530.54,670.37,526.38,668.7,522.96z M625.96,545.21c-0.21-0.93-0.41-0.93-0.6,0c-2.64,12.32-8.67,18.93-21.12,22.98
	c-0.99,0.33-0.98,0.61,0.03,0.86c8.86,2.2,15.56,6.66,19.18,15.46c0.86,2.12,1.16,4.46,1.64,6.67c0.1,0.47,0.78,0.47,0.87-0.01
	c2.35-13.03,8.41-18.88,20.87-22.31c0.73-0.21,0.72-0.4-0.01-0.59c-8.27-2.12-15.68-6.79-18.62-15.18
	C627.31,550.56,626.56,547.93,625.96,545.21z M332.48,571.02c4.86-2.52,9.73-4.59,14.61-6.21c10.51-3.49,20.66-2.49,30.45,2.99
	c0.25,0.14,0.52,0.18,0.81,0.12c1.02-0.23,2.04-1.21,3.01-1.65c14.97-6.84,28.1-2.56,41.97,5c1.52,0.83,1.65,0.65,0.38-0.54
	c-4.15-3.89-8.33-7.44-12.53-10.64c-9.74-7.41-21.54-9.75-32.44-3.03c-0.52,0.32-1.18,0.31-1.7-0.01
	c-8.99-5.61-18.13-5.59-27.42,0.05c-5.33,3.23-11.16,7.7-17.51,13.39C330.85,571.62,330.97,571.79,332.48,571.02z M239.33,554.75
	c0.04-0.25,0-0.48-0.11-0.69c-0.11-0.22-0.21-0.21-0.29,0.02c-3.56,10.38-5.83,21.77-0.87,31.71c0.31,0.61,0.46,0.58,0.46-0.11
	c-0.01-1.68-0.35-3.38-0.43-5.08C237.66,571.41,238.08,562.8,239.33,554.75z M517.26,586.48c-0.02,0.28,0.05,0.31,0.22,0.09
	c1.23-1.55,2.02-3.36,2.37-5.43c1.53-8.95,0.61-17.27-2.76-24.96c-0.77-1.75-1-1.68-0.7,0.21
	C517.9,566.06,518.19,576.09,517.26,586.48z M139.37,559.92c-0.01-0.1-0.1-0.17-0.2-0.17c-0.1-0.01-0.18,0.06-0.2,0.16
	c-1.34,7.06-3.47,14.1-7.92,19.52c-4.47,5.44-12.24,9.22-19.13,10.95c-1.06,0.27-1.07,0.56-0.03,0.89c2.66,0.83,5.37,1.76,8.14,2.79
	c10.88,4.05,16.74,12.86,18.59,24.43c0.37,2.37,0.77,2.38,1.19,0.01c1.63-9.25,5.93-18.18,14.42-22.57
	c3.92-2.03,7.87-3.54,11.85-4.53c0.88-0.22,0.88-0.43-0.01-0.64C149.55,586.96,141.79,576.41,139.37,559.92z M418.07,592.49
	c-4.43,2.59-7.96,4.25-10.84,8.91c-6.56,10.62,0.23,22.47,12.07,24.09c10.48,1.43,17.93-3,22.36-13.28
	c3.39-7.88,3.14-20.17-3.72-26.27c-2.98-2.65-8.36-4.55-12.07-5.16c-11.53-1.87-22.31-2.3-32.32-1.28
	c-10.12,1.03-19.1,1.17-26.93,0.43c-7.37-0.7-11.77-1.04-13.18-1.03c-9.48,0.08-18.77,0.46-27.99,3.07
	c-7.86,2.22-12.12,7.64-12.79,16.27c-1.16,14.92,8.1,30.83,25.19,26.89c3.72-0.85,6.62-2.33,8.69-4.42c4.71-4.76,6-11.39,3.05-17.43
	c-1.81-3.72-4.48-7.16-8.03-9.07c-1.02-0.55-1.98-1.23-2.89-2.03c-0.4-0.35-0.35-0.45,0.16-0.32c1.42,0.37,2.69,1.04,4.15,1.33
	c6.49,1.27,13.85,2.07,22.09,2.4c18.39,0.73,35.52,0.79,52.87-3.43C418.73,591.97,418.78,592.08,418.07,592.49z M580.11,601.05
	c0-2.34-1.89-4.23-4.23-4.23s-4.23,1.89-4.23,4.23c0,2.34,1.89,4.23,4.23,4.23S580.11,603.39,580.11,601.05z M103.57,608.8
	c1.21-0.43,1.81-1.85,1.34-3.16c-0.47-1.31-1.83-2.02-3.04-1.59c-1.21,0.43-1.81,1.85-1.34,3.16
	C101,608.53,102.36,609.24,103.57,608.8z M296.79,609.12c-0.11-0.65-0.25-1.29-0.43-1.92c-0.31-1.07-0.48-1.05-0.53,0.06
	c-0.4,9.95,1.68,18.61,6.24,25.97c8.01,12.94,21.53,19.32,36.59,14.91c0.1-0.03,0.14-0.1,0.12-0.21v-0.01
	c-0.02-0.11-0.09-0.16-0.2-0.15c-10.77,0.85-18.74-2.02-26.55-9.66C303.85,630.1,298.77,620.44,296.79,609.12z M459.74,611.93
	c-0.05-1.89-0.3-1.91-0.74-0.08c-2.34,9.8-6.31,18.08-13.4,25.36c-7.12,7.32-15.7,11.15-26.12,10.89c-2.15-0.05-2.17,0.16-0.08,0.64
	C442.91,654.16,460.37,633.93,459.74,611.93z M652.66,618.14c0-2.68-2.18-4.86-4.86-4.86s-4.86,2.18-4.86,4.86
	c0,2.68,2.18,4.86,4.86,4.86S652.66,620.82,652.66,618.14z M605.7,660.41c1.71-7.38,5.52-13.05,12.55-16.48
	c2.04-1,4.13-1.96,6.27-2.89c0.47-0.21,0.46-0.39-0.03-0.54c-2.9-0.9-5.76-2.27-8.58-4.11c-5.94-3.86-8.34-8.95-10.16-15.43
	c-0.41-1.45-0.78-1.44-1.11,0.03c-2.32,10.15-9.32,15.96-18.89,19.29c-1.41,0.49-1.39,0.95,0.04,1.37
	c9.44,2.76,16.72,8.75,18.74,18.74C604.9,662.2,605.29,662.21,605.7,660.41z M120.16,630.2c0-2.35-1.9-4.25-4.25-4.25
	c-2.35,0-4.25,1.9-4.25,4.25c0,2.35,1.9,4.25,4.25,4.25C118.26,634.45,120.16,632.55,120.16,630.2z M261.01,715.09
	c-14.49-13.03-26.75-28.11-37.96-44.31c-3-4.35-5.53-8.76-7.59-13.25c-0.62-1.35-0.84-1.29-0.66,0.19
	c2.16,17.58,9.26,33.92,17.95,49.85c2.87,5.28,6.05,10.45,9.52,15.51c0.02,0.03,0.02,0.05-0.01,0.07l-0.21,0.16
	c-0.13,0.1-0.24,0.09-0.35-0.02c-9.79-10.47-18.81-21.16-27.06-32.09c-1.26-1.67-3.33-5.47-6.21-11.4c-0.04-0.07-0.1-0.11-0.18-0.11
	c-0.03,0-0.07,0-0.1,0.01c-0.11,0.04-0.16,0.12-0.13,0.24c3.37,14.63,8.8,28.32,16.27,41.09c12.5,21.36,27.24,42.61,44.23,63.74
	c4.93,6.13,9.8,12.17,14.62,18.1c8.18,10.07,17.01,19.6,25.53,29.49c0.2,0.23,0.56,0.21,0.73-0.03
	c17.69-25.11,34.1-50.96,49.21-77.57c0.97-1.71,1.81-3.41,2.5-5.11c0.13-0.32,0.02-0.51-0.32-0.57
	c-21.49-3.88-41.75-11.89-60.8-24.02c-20.46-13.04-37.56-28.58-51.29-46.62c-11.71-15.39-20.08-32.75-25.52-51.43
	c-0.15-0.53-0.3-0.53-0.43,0.01c-0.49,2.03-1.08,4.02-1.77,5.98c-1.52,4.31-1.52,8.93-0.1,13.28c4.75,14.6,12.68,29.13,20.94,41.65
	c4.77,7.23,11.27,16.15,19.52,26.75c0.06,0.07,0.05,0.14-0.02,0.21l-0.21,0.2C261.08,715.12,261.04,715.12,261.01,715.09z
	 M514.35,722.87c-0.15-0.12-0.19-0.33-0.08-0.49c9.75-14.15,17.6-30.09,23.04-46.46c1.63-4.93,2.75-10.35,3.35-16.28
	c0.13-1.24-0.08-1.3-0.61-0.17c-1.38,2.91-3.23,5.94-5.56,9.11c-4.61,6.29-9.43,12.65-14.48,19.08
	c-6.58,8.39-14.87,17.47-24.87,27.23c-0.1,0.1-0.27,0.09-0.37-0.01l-0.2-0.19c-0.09-0.09-0.09-0.18-0.01-0.28
	c14.68-17.7,27.47-36.97,37-58.02c2.49-5.49,5.8-13.21,4.72-19.07c-0.58-3.15-1.61-6.46-3.1-9.92c-0.27-0.61-0.39-0.59-0.36,0.08
	c0.05,1.3-0.22,2.56-0.65,3.8c-3.57,10.17-6.56,17.56-8.98,22.17c-18.5,35.17-48.95,63.4-84.39,81.19
	c-9.49,4.77-19.75,8.53-30.77,11.3c-4.35,1.1-8.53,2.32-12.95,3.12c-0.34,0.06-0.52,0.44-0.35,0.75
	c15.13,27.55,31.77,54.83,50.37,80.35c0.53,0.74,0.97,1.53,1.31,2.36c0.09,0.22,0.38,0.26,0.53,0.08
	c11.25-12.88,22.65-25.6,33.34-38.82c3.83-4.73,7.89-9.79,12.17-15.16c15.07-18.89,28.5-38.67,40.29-59.34
	c6.21-10.89,10.98-22.54,14.31-34.96c0.11-0.43,0.19-0.86,0.22-1.3c0.07-0.86-0.09-0.91-0.5-0.14c-3.13,5.85-6.75,11.09-10.88,15.71
	c-7.72,8.63-14.79,16.78-21.22,24.43c-0.03,0.04-0.07,0.04-0.11,0.01L514.35,722.87z M164.85,644.48c0-4.03-3.26-7.29-7.29-7.29
	s-7.29,3.26-7.29,7.29s3.26,7.29,7.29,7.29S164.85,648.51,164.85,644.48z M378.71,642.28c-0.31-3.47-0.6-3.47-0.85,0.01
	c-1.27,17.39-1.26,35.86,0.02,55.41c0.01,0.07,0.04,0.11,0.1,0.14c0.05,0.01,0.1,0,0.14-0.04c0.06-0.06,0.09-0.13,0.1-0.22
	C380.24,679.07,380.4,660.63,378.71,642.28z"/>
<path d="M525.47,35.5c0,1.48-1.2,2.68-2.68,2.68c-1.48,0-2.68-1.2-2.68-2.68c0-1.48,1.2-2.68,2.68-2.68
	C524.27,32.82,525.47,34.02,525.47,35.5z"/>
<path d="M277.08,40.95c-9.46,5.73-19.48,17.07-21.26,28.2c-0.06,0.4-0.4,0.69-0.8,0.71c-5.41,0.29-10.76,1.12-15.53,3.84
	c-0.38,0.21-0.82-0.14-0.7-0.56c0.8-2.66,1.32-5.33,2.61-7.85c7.4-14.46,20.73-20.25,35.47-24.82
	C278.24,40.05,278.31,40.21,277.08,40.95z"/>
<path d="M528.38,52.88c12.93,5.48,20.77,14.66,20.37,28.98c-0.05,1.81-0.69,3.88-1.55,5.47c-0.52,0.94-1.67,1.31-2.63,0.84
	c-7.38-3.58-14.71-3.31-23.44-2.36c-0.43,0.05-0.66-0.14-0.69-0.57c-1.19-13.4-8.02-25.59-16.98-35.74
	c-0.71-0.81-1.47-1.55-2.26-2.22c-0.99-0.85-0.84-1.2,0.46-1.06C511.48,47.27,520.39,49.49,528.38,52.88z"/>
<path d="M177.72,56.98c0,3.39-2.74,6.13-6.13,6.13c-3.39,0-6.13-2.74-6.13-6.13s2.74-6.13,6.13-6.13
	C174.98,50.85,177.72,53.59,177.72,56.98z"/>
<path d="M200.51,58.61c1.13,1.83,0.45,4.31-1.53,5.53c-1.98,1.22-4.5,0.72-5.63-1.11c-1.13-1.83-0.45-4.31,1.53-5.53
	C196.86,56.28,199.38,56.78,200.51,58.61z"/>
<path d="M629.7,66.32c0,3.21-2.6,5.81-5.81,5.81s-5.81-2.6-5.81-5.81c0-3.21,2.6-5.81,5.81-5.81S629.7,63.11,629.7,66.32z"/>
<path d="M569.48,70.61c0,3.06-2.48,5.54-5.54,5.54s-5.54-2.48-5.54-5.54s2.48-5.54,5.54-5.54S569.48,67.55,569.48,70.61z"/>
<path d="M603.7,84.88c0,5.63-4.56,10.19-10.19,10.19s-10.19-4.56-10.19-10.19c0-5.63,4.56-10.19,10.19-10.19
	S603.7,79.25,603.7,84.88z"/>
<path d="M152.02,99.29c-3.2-2.1-4.04-6.49-1.87-9.8c2.17-3.32,6.53-4.31,9.73-2.21c3.2,2.1,4.04,6.49,1.87,9.8
	C159.58,100.39,155.22,101.38,152.02,99.29z"/>
<path d="M629.79,112.86c0,3.05-2.48,5.53-5.53,5.53s-5.53-2.48-5.53-5.53s2.48-5.53,5.53-5.53S629.79,109.81,629.79,112.86z"/>
<path class="st0" d="M397.58,191.54c-1.32-0.59-2.65-1.05-3.98-1.38c-1.24-0.31-2.3-0.85-3.19-1.62c-0.85-0.74-1.81-1.34-2.88-1.79
	c-3.5-1.48-6.67-4.96-8.71-8.05c-1.15-1.73-0.74-2.26,1.23-1.61c6.84,2.25,13.88,3.61,21.12,4.08c10.17,0.65,20.09,0.51,29.75-2.85
	c0.89-0.31,1.8-0.37,2.75-0.2c0.38,0.07,0.56,0.5,0.35,0.82c-2.47,3.76-5.41,7.26-9.5,9.38c-8.35,4.32-17.22,5.51-26.61,3.57
	c-0.09-0.02-0.17-0.08-0.24-0.18c-0.02-0.03-0.03-0.06-0.04-0.09S397.61,191.56,397.58,191.54z"/>
<path class="st0" d="M514.56,251.99c-2.67,0.87-5.34,1.4-8.03,1.59c-1.01,0.07-1.94,0.23-2.78,0.5c-1.29,0.41-2.58,0.26-3.9,0.48
	c-16.69,2.74-33.34,5.74-49.93,9.01c-3.71,0.73-9.05,2.04-16.02,3.93c-5.3,1.44-10.66,2.68-16.09,3.71
	c1.12-0.31,1.86-0.63,2.23-0.95c0.18-0.15,0.38-0.28,0.59-0.37c3.3-1.36,6.57-2.45,9.8-3.27c1.1-0.28,2.19-0.66,3.26-1.15
	c1.17-0.53,2.44-0.92,3.81-1.16c0.29-0.05,0.44-0.23,0.45-0.52c0.01-0.08,0.02-0.16,0.04-0.25c0.03-0.16-0.04-0.24-0.2-0.23
	c-2.84,0.09-5.19,0.46-7.06,1.11c-7.19,2.53-14.02,4.87-20.48,7.03c-1.19,0.4-1.25,0.26-0.2-0.43c1-0.65,2.09-1.21,3.27-1.68
	c3.91-1.54,7.94-2.57,11.75-4.06c2.52-0.98,5.14-1.55,7.72-2.39c1.09-0.36,2.14-0.65,3.13-0.86c8.95-1.97,18.25-4.02,27.9-6.13
	c2.41-0.53,4.84-1.05,7.29-1.56c7.18-1.5,14.57-2.65,22.16-3.44c1.83-0.19,3.43-0.06,4.8,0.39c1.21,0.41,2.37,0.7,3.46,0.88
	c0.87,0.14,1.73,0.3,2.58,0.47c0.77,0.16,1.58,0.17,2.44,0.03C509.2,252.24,511.87,252.02,514.56,251.99z"/>
<path class="st0" d="M279.12,254.5c-2.23-0.49-4.55-0.67-6.76-1.33c-1.17-0.35-1.14-0.53,0.07-0.56c1.61-0.05,3.13,0.13,4.58,0.54
	c1.75,0.48,3.55,0.41,5.36,0.8c2.68,0.58,5.76,1.15,9.23,1.7c18.31,2.91,35.93,7.52,52.85,13.83c1.08,0.4,2.25,0.96,3.5,1.69
	c0.04,0.03,0.05,0.06,0.03,0.1l-0.12,0.22c-0.08,0.15-0.2,0.19-0.35,0.12c-2.57-1.23-5.23-2.13-7.99-2.7
	c-2.24-0.47-4.25-1.63-6.44-2.26c-4.67-1.33-9.35-2.67-14.02-4.03c-3.69-1.07-11.63-2.76-23.83-5.06c-0.69-0.13-1.47-0.19-2.34-0.2
	c-0.74-0.01-1.47-0.09-2.2-0.26C286.76,256.2,282.91,255.33,279.12,254.5z"/>
<path class="st0" d="M503.87,262.35l-4.25,0.03C501.12,261.89,502.54,261.88,503.87,262.35z"/>
<path d="M409.07,272.1c-0.65,0.66-1.41,1.08-2.29,1.27c-0.46,0.09-0.53-0.03-0.21-0.38c0.72-0.78,1.53-1.28,2.43-1.5
	c0.19-0.05,0.37,0.13,0.32,0.32C409.27,272.04,409.18,272.13,409.07,272.1z"/>
<path class="st0" d="M276.41,364.14c-7.47-0.8-15.02-1.04-22.63-0.72c1.45-0.48,2.88-0.76,4.29-0.85
	C264.26,362.18,270.38,362.7,276.41,364.14z"/>
<path class="st0" d="M281.17,365.4c0.78-0.42,1.67-0.33,2.66,0.26c0.75,0.46,1.49,0.75,2.21,0.86c1.32,0.21,2,0.31,2.03,0.32
	c1.62,0.45,3.32,0.79,5.1,1c0.55,0.07,1.07,0.24,1.55,0.5c0.89,0.49,0.83,0.8-0.18,0.91c-1.57,0.18-3-0.02-4.58,0.27
	c-3.03,0.54-6.19,0.95-9.48,1.24c-0.33,0.03-0.64,0.13-0.92,0.32c-0.77,0.51-1.94,0.16-2.88,0.39c-7.08,1.75-11.95,3.19-14.6,4.33
	c-5.99,2.57-10.64,5.47-13.97,8.71c-4.75,4.63-9.77,10.86-16.68,11.87c-0.17-1.17-0.17-1.92,0.02-2.24
	c1.42-2.49,2.85-4.97,4.28-7.45c3.9-6.77,10.07-9.85,17.27-12.34c1.71-0.59,3.46-0.98,5.25-1.15c2.66-0.27,5.14-0.61,7.74-1.21
	c3.95-0.91,7.93-1.61,11.96-2.08c0.46-0.05,1.01-0.24,1.65-0.56c1.73-0.85,5.44-0.58,7.47-0.47c0.43,0.03,0.83-0.07,1.2-0.3
	c0.17-0.11,0.35-0.16,0.54-0.17c0.81-0.05,0.83-0.18,0.04-0.4C286.28,367.3,283.72,366.43,281.17,365.4z"/>
<path class="st0" d="M465.46,369.78c4.09,0.01,8.13,0.23,12.11,0.66c1.43,0.15,2.76,0.42,3.99,0.79c0.31,0.09,0.31,0.21,0.02,0.34
	c-0.24,0.11-0.46,0.11-0.67,0.02c-0.06-0.03-0.06-0.04,0.01-0.04c2.29-0.03,4.55,0.24,6.78,0.81c1.91,0.49,3.86,0.89,5.85,1.22
	c2.01,0.33,3.97,0.59,5.88,0.77c1.51,0.14,3.06,0.49,4.67,1.06c4.75,1.66,9.04,3.46,12.67,7.04c3.86,3.81,6.79,8.32,8.78,13.53
	c0.05,0.13,0.06,0.26,0.05,0.39c-0.12,1.03-0.53,1.31-1.24,0.84c-3.43-0.91-6.3-2.39-8.59-4.43c-1.96-1.75-5.06-4.64-9.31-8.69
	c-6.57-6.27-14.04-10.16-22.39-11.69C481,371.83,474.8,370.96,465.46,369.78z"/>
<path class="st0" d="M491.56,397.36c-3.26-1.73-6.79-2.44-10.58-2.13l0.82-6.83c0.14-1.12,0.74-1.5,1.8-1.13l6.19,2.14
	c1.12,0.39,1.87,1.46,1.85,2.65L491.56,397.36z"/>
<path class="st0" d="M317.23,398.74c-0.75-1.92-1.8-3.01-3.16-3.26c-1.35-0.25-2.93-0.46-4.74-0.61l0.81-6.59
	c0.05-0.39,0.27-0.52,0.64-0.38c2.33,0.89,4.37,1.9,6.13,3.04c0.38,0.24,0.63,0.63,0.7,1.07
	C317.92,393.92,317.79,396.17,317.23,398.74z"/>
<path class="st0" d="M274.02,393.52c-1.51,0.47-3,0.93-4.47,1.38c-1.81,0.57-3.35,1.73-4.61,3.49c-0.83-1.77-2.25-7.44,0.8-8.45
	c2.22-0.74,4.45-1.37,6.7-1.89c0.74-0.17,1.14,0.12,1.2,0.87L274.02,393.52z"/>
<path class="st0" d="M445.48,394.43c-1.7,1.11-3.38,1.58-5.03,1.42c-0.32-0.03-0.63,0.1-0.83,0.35c-0.33,0.44-0.62,1.16-0.85,2.16
	c-0.37-2.68-0.17-4.72,0.58-6.12c0.35-0.67,1.16-1.27,2.42-1.82c1.1-0.48,2.09-0.97,2.98-1.48c0.24-0.13,0.52,0.05,0.49,0.32
	C445.03,391.21,445.11,392.93,445.48,394.43z"/>
<path class="st0" d="M463.83,395.24l-10.66-0.52c-0.04-0.13-0.03-0.25,0.03-0.36c0.05-0.09,0.15-0.15,0.29-0.18
	C457.08,393.39,460.53,393.74,463.83,395.24z"/>
<path class="st0" d="M200.82,463.13c0.49,0.79,0.58,1.93,0.28,3.4C200.69,465.47,200.6,464.34,200.82,463.13z"/>
<path class="st0" d="M556.59,480.25c-0.61,0.77-1.15,1.01-1.64,0.73c-0.05-0.65-0.03-1.12,0.06-1.41c0.13-0.39,0.24-0.38,0.34,0.01
	C555.49,480.13,555.9,480.36,556.59,480.25z"/>
</svg>
