<?xml version="1.0" encoding="utf-8"?>
<!-- Generator: Adobe Illustrator 28.1.0, SVG Export Plug-In . SVG Version: 6.00 Build 0)  -->
<svg version="1.0" id="katman_1" xmlns="http://www.w3.org/2000/svg" xmlns:xlink="http://www.w3.org/1999/xlink" x="0px" y="0px"
	 viewBox="0 0 738.41 746.64" style="enable-background:new 0 0 738.41 746.64;" xml:space="preserve">
<path d="M387.24,0.88c-1.51,34.16-2.61,68.65-4.5,102.44c-0.01,0.2-0.18,0.36-0.38,0.35c-8.35-0.39-16.94-0.39-25.79,0.02
	c-0.45,0.03-0.69-0.18-0.72-0.63c-2.11-33.29-3.91-67.34-5.39-102.16c-0.01-0.33,0.15-0.51,0.48-0.52
	c11.81-0.47,23.73-0.5,35.76-0.09C387.01,0.3,387.26,0.57,387.24,0.88z"/>
<path d="M336.54,104.79c0.07,0.49-0.28,0.94-0.77,1.01l-13.98,1.86c-0.49,0.07-0.94-0.28-1.01-0.77L307.46,7.02
	c-0.07-0.49,0.28-0.94,0.77-1.01l13.98-1.86c0.49-0.07,0.94,0.28,1.01,0.77L336.54,104.79z"/>
<path d="M416.86,108.03c-4.69-1.23-9.32-2.14-13.89-2.75c-0.6-0.09-0.87-0.43-0.81-1.04c0.77-7.46,1.58-14.52,2.42-21.18
	c3.31-26.21,6.99-52.45,11.05-78.74c0.03-0.16,0.17-0.27,0.33-0.25l14.43,1.97c0.45,0.06,0.64,0.32,0.56,0.77
	c-0.47,2.65-0.87,5.34-1.18,8.08c-3.52,30.66-7.56,61.53-12.13,92.62C417.57,107.98,417.31,108.15,416.86,108.03z"/>
<path d="M493.06,22.12C480,53.47,467.37,83.7,454.34,117.68c-0.13,0.35-0.38,0.47-0.73,0.36l-20.67-6.65
	c-0.27-0.09-0.4-0.27-0.38-0.56c0.27-3.39,0.68-6.23,1.25-8.52c6.26-25.21,14.16-55.59,23.69-91.16c0.11-0.41,0.38-0.56,0.79-0.47
	c11.71,2.71,23.48,6.54,34.55,10.93C493.09,21.7,493.16,21.87,493.06,22.12z"/>
<path d="M265.67,69.78c-6.3-16.06-13.47-32.04-19.76-47.66c-0.17-0.43,0.08-0.9,0.53-1.01c0.74-0.17,1.45-0.38,2.13-0.62
	c11.07-3.91,21.39-7.08,30.97-9.51c0.44-0.12,0.9,0.15,1.02,0.59c9,32.86,17.12,62.89,24.5,94.41c0.43,1.85,0.74,3.69,0.91,5.52
	c0.03,0.35-0.13,0.55-0.48,0.58c-1.03,0.08-2.02,0.26-2.98,0.55c-5.92,1.73-11.75,3.55-17.49,5.45c-0.33,0.11-0.56,0.01-0.69-0.32
	C278.33,102.21,272.11,86.21,265.67,69.78z"/>
<path d="M479.31,121.69c13.86-29.51,29.21-59,44.24-86.62c0.32-0.59,1.05-0.83,1.65-0.53c10.78,5.3,21.03,11.07,30.74,17.32
	c0.29,0.19,0.34,0.42,0.15,0.71c-7.98,12.39-17.04,26.28-27.19,41.67c-9.02,13.67-18.1,27.77-27.23,42.29
	c-0.57,0.89-1.09,1.82-1.56,2.77c-0.11,0.23-0.4,0.31-0.62,0.18c-6.9-4.25-14.01-8.24-21.34-11.99c-0.29-0.14-0.41-0.37-0.36-0.69
	C478.08,124.92,478.59,123.22,479.31,121.69z"/>
<path d="M182.96,51.93c9.43-6.17,19.94-11.59,30.52-17.19c0.54-0.28,1.2-0.08,1.48,0.46c15.17,28.8,30.27,56.79,44.58,87.04
	c0.73,1.53,1.34,3.09,1.85,4.66c0.11,0.34,0,0.59-0.31,0.74c-7.35,3.61-14.47,7.5-21.34,11.65c-0.39,0.24-0.71,0.16-0.96-0.23
	c-15.24-24.19-31.01-48.61-47.31-73.25c-2.95-4.47-5.83-8.93-8.62-13.38C182.73,52.23,182.77,52.06,182.96,51.93z"/>
<path d="M571.7,142.67c-9.51,10.1-18.64,19.62-27.37,28.56c-0.33,0.34-0.88,0.38-1.25,0.07l-20.84-17.03
	c-0.35-0.28-0.42-0.78-0.18-1.16c2.48-3.84,5-7.41,7.55-10.71c18.39-23.73,37.11-47.16,56.15-70.29c0.22-0.27,0.62-0.32,0.9-0.11
	c9.41,6.9,19.7,14.96,28.42,23.44c0.25,0.24,0.22,0.65-0.06,0.86c-2.52,1.84-4.14,4.43-6.22,6.66
	C596.73,115.98,584.36,129.22,571.7,142.67z"/>
<path d="M215.24,154.93l-19.32,15.46c-0.07,0.05-0.12,0.11-0.15,0.18c-0.26,0.54-0.69,0.87-1.28,0.98c-0.24,0.04-0.5-0.04-0.67-0.22
	l-70-74.85c-0.39-0.42-0.38-0.82,0.05-1.21c8.93-8.05,18.27-15.7,28.02-22.97c0.49-0.36,1.18-0.28,1.57,0.2
	c20.51,25.43,41.23,50.44,60.65,76.39c1.05,1.39,2.06,2.84,3.05,4.33c0.32,0.48,0.2,0.81-0.35,0.99l-0.56,0.18
	C215.88,154.5,215.55,154.68,215.24,154.93z"/>
<path d="M99.87,182.55c-10.35-6.63-19.71-12.75-28.08-18.37c-1.7-1.14-3.29-2.31-4.78-3.52c-0.27-0.21-0.31-0.46-0.13-0.75
	c7.51-12.18,16.77-24.35,27.78-36.51c0.46-0.51,1.24-0.56,1.76-0.12c19.89,17.02,39.06,33.31,57.52,48.86
	c6.94,5.85,13.22,11.28,18.84,16.31c1.25,1.12,2.43,2.31,3.56,3.57c0.19,0.22,0.13,0.55-0.12,0.69c-2.67,1.51-3.61,3.87-5.43,6.14
	c-4.41,5.52-8.49,10.77-12.25,15.76c-0.84,1.11-1.55,2.23-2.13,3.35c-0.15,0.28-0.5,0.37-0.76,0.2
	C136.96,206.26,118.37,194.39,99.87,182.55z"/>
<path d="M604.81,204.69c-7.26,4.59-14.52,9.27-21.77,14.06c-0.3,0.19-0.7,0.11-0.89-0.19c-5.79-8.95-12.65-17.34-19.56-25.7
	c-0.22-0.27-0.19-0.67,0.08-0.9c2.45-2.11,4.53-4.5,6.99-6.63c23.13-19.98,48.94-41.15,73.01-62.06c0.47-0.41,1.18-0.35,1.59,0.12
	c9.97,11.45,19.36,23.78,28.19,36.98c0.23,0.33,0.17,0.6-0.17,0.81c-3.7,2.31-7.11,4.93-10.73,7.27
	C643.33,180.24,624.42,192.32,604.81,204.69z"/>
<path d="M217.76,709.55c-26.26-13.38-50.52-29.95-72.77-49.7c-5.84-5.18-11.59-10.32-17.26-15.42c-0.25-0.23-0.39-0.51-0.41-0.84
	c-0.18-2.51-0.25-7.18-0.21-14.03c0.43-80.55,1.48-160.71,3.16-240.5c0.17-8.24,0.45-16.48,0.84-24.71
	c1.15-24.51,5.47-48.44,12.95-71.78c16.49-51.44,51.82-98.6,97.23-127.39c34.16-21.65,71.08-34.34,110.76-38.05
	c16.97-1.59,35.29-0.77,54.97,2.46c43.25,7.1,84.15,27.52,117.29,56.21c11.87,10.28,23.28,22.91,34.23,37.89
	c10.49,14.35,18.8,28.1,24.91,41.25c14.77,31.79,22.68,65.16,23.75,100.13c0.51,16.53,0.89,33.27,1.16,50.24
	c1.38,86.92,2.23,156.98,2.55,228.01c0,0.67-0.28,1.31-0.77,1.76c-6.29,5.79-12.55,11.42-18.78,16.87
	c-56.88,49.78-127.45,78.96-203.18,84.07c-23.68,1.61-47.14,0.03-71.61-3.88c-17.19-2.75-33.84-6.85-49.97-12.31
	C248.61,723.74,232.33,716.98,217.76,709.55z M493.89,474.71c-2.05,0.5-4.04,0.83-6.04,1.55c-8.12,2.91-14.96,7.61-20.53,14.11
	c-1.38,1.61-1.06,2.09,0.96,1.44c4.92-1.58,11.47-3.09,19.65-4.52c2.91-0.51,5.67-0.76,8.26-0.75c0.24,0,0.43,0.1,0.56,0.31
	c0.17,0.27,0.02,0.62-0.29,0.68c-6.9,1.43-12.81,4.39-18.97,8.24c-16.35,10.24-25.76,25.5-27.52,45.23
	c-0.64,7.09,0.75,14.63,6.73,19.6c0.21,0.18,0.53,0.02,0.53-0.25c-0.35-25.18,9.41-46.63,33.28-56.71c4.92-2.08,9.95-3.78,15.1-5.11
	c8.93-2.3,17.73-4.56,26.39-6.79c15.66-4.03,27.41-13.04,27.14-30.47c-0.35-22.26-2.78-42.61-5.61-64.96
	c-0.01-0.13-0.09-0.2-0.23-0.19l-0.3,0.02c-0.03,0-0.04,0.01-0.04,0.04c-0.33,14.22-3.91,27.17-10.75,38.84
	c-1.91,3.27-5.05,7.96-9.41,14.05c-0.19,0.27-0.58,0.31-0.83,0.09l-0.19-0.17c-0.09-0.08-0.1-0.17-0.05-0.27
	c2.45-4.75,4.34-9.46,5.67-14.15c5.63-19.88,6.27-40.5,4.22-61.93c-2.21-23.11-10.82-43.33-28.39-57.79
	c-7.27-5.97-15.43-11.18-24.5-15.63c-10.7-5.25-20.84-9.67-30.42-13.28c-0.19-0.07-0.27-0.29-0.17-0.47
	c0.16-0.27,0.4-0.38,0.73-0.35c12.18,1.31,24.51,3.21,36.99,5.7c1.16,0.23,2.16,0.78,3.31,1.02c0.93,0.19,1.12-0.1,0.57-0.88
	c-5.17-7.33-11.28-14.22-18.35-20.69c-22.31-20.43-47.52-34.02-75.63-40.77c-41.11-9.86-84.17-2.35-120.31,18.93
	c-19.07,11.23-34.84,25.39-47.33,42.46c-0.53,0.72-0.36,0.98,0.51,0.77c13.02-3.04,26.47-5.22,40.34-6.54
	c0.28-0.03,0.47,0.05,0.57,0.23c0.07,0.12,0.02,0.27-0.11,0.32c-11.19,4.26-22,9.09-32.41,14.48
	c-19.94,10.33-36.66,24.45-44.87,45.22c-2.41,6.1-4.11,12.57-5.08,19.42c-3.47,24.44-3.01,49.91,4.5,73.4
	c0.97,3.04,2.25,6.24,3.84,9.61c0.76,1.6,0.5,1.78-0.77,0.55c-0.79-0.78-1.55-1.63-2.27-2.56c-10.78-14.01-15.82-29.11-17.39-46.65
	c-0.24-2.65-0.54-2.66-0.89-0.02c-2.56,19.07-4.34,38.39-5.35,57.96c-0.29,5.64,0.24,10.59,1.58,14.86
	c3.63,11.5,15.61,17.42,27.16,20.41c8.05,2.08,16.07,4.15,24.07,6.22c7.67,1.99,14.29,4.44,19.85,7.37
	c13.47,7.1,22.11,17.8,25.93,32.11c2.1,7.84,3.07,15.33,2.91,22.48c-0.01,0.46,0.53,0.72,0.88,0.42c9.67-8.46,6.99-25.49,3.01-36.4
	c-3.79-10.37-10.06-18.68-18.82-24.93c-7.7-5.49-15.05-10.4-24.25-12.03c-0.22-0.04-0.36-0.26-0.3-0.48l0.07-0.25
	c0.11-0.43,0.39-0.61,0.84-0.56c9.79,1.24,18.7,3.07,26.73,5.49c1.39,0.42,1.64,0.06,0.75-1.09c-5.84-7.55-17.18-14.79-26.55-15.85
	c-0.04-0.01-0.06-0.03-0.06-0.07l0.02-0.26c0.01-0.22,0.13-0.33,0.35-0.33c5.41-0.08,10.98,0.65,16.72,2.18
	c16.17,4.33,27.52,14.25,34.06,29.77c3.39,8.04,5.17,17.86,5.36,29.45c0.15,9.42-0.8,17.63-2.85,24.62
	c-0.13,0.46-0.01,0.54,0.37,0.24c2.41-1.91,4.89-3.78,7.44-5.63c1.95-1.41,4.18-6.13,6.69-14.15c0.12-0.38,0.43-0.68,0.83-0.78
	l0.26-0.07c0.16-0.04,0.32,0.1,0.3,0.27c-0.74,5.83-0.2,11.34,1.61,16.51c0.2,0.59,0.89,0.85,1.43,0.55
	c2.93-1.63,6.28-2.99,10.03-4.08c1.47-0.42,2.43-1.38,2.89-2.89c1.07-3.47,2.14-6.79,3.22-9.97c0.58-1.71,1-1.67,1.26,0.11
	c0.79,5.26,0.34,10.01,2.47,15.03c0.23,0.53,0.85,0.77,1.37,0.52c4.89-2.31,10.24-4.81,16.07-7.52c0.73-0.35,1.46-0.32,2.19,0.07
	c5.36,2.88,9.97,6.9,13.82,12.07c0.23,0.31,0.45,0.3,0.67-0.01c3.31-4.79,7.44-8.68,12.4-11.65c1.28-0.77,2.65-1.12,4.03-0.36
	c5.24,2.85,10.4,5.29,15.47,7.32c0.54,0.22,1.15,0,1.44-0.5c0.88-1.55,1.44-3.31,1.67-5.27c0.41-3.45,0.71-6.95,0.91-10.51
	c0.02-0.3,0.36-0.45,0.59-0.26c0.51,0.44,0.86,0.99,1.05,1.66c0.6,2.16,1.23,4.35,1.88,6.56c1.76,6,6.1,5.64,10.69,7.98
	c1.15,0.59,2.29,1.21,3.4,1.86c0.36,0.21,0.64,0.14,0.85-0.23c2.58-4.59,2.35-9.92,2.04-15.07c-0.23-3.64,0.31-3.76,1.61-0.35
	c1.25,3.29,2.52,6.45,3.79,9.46c1.83,4.33,5.86,6.7,9.5,9.3c0.57,0.4,0.72,0.28,0.46-0.36c-0.81-2-1.28-3.48-1.41-4.45
	c-3.42-25.55-1.38-56.21,22.11-72.17c7.67-5.22,16.93-8.3,27.78-9.23c1.48-0.13,2.98-0.09,4.49,0.12
	C494.54,474.43,494.54,474.56,493.89,474.71z M266.08,656.56c-1.04-0.71-2.1-1.59-3.19-2.64c-15.51-14.95-25.81-33.91-32.32-55.38
	c-6.81-22.45-13.34-44.57-19.59-66.36c-0.04-0.13-0.13-0.18-0.27-0.15l0,0c-0.1,0.02-0.14,0.08-0.12,0.17
	c5.77,36.7,11.97,72.25,19.87,109.61c1.37,6.44,2.95,13.05,4.74,19.82c0.13,0.47,0.47,0.86,0.93,1.04c2.71,1.07,5.52,2.34,8.45,3.81
	c30.61,15.41,61.27,30.72,91.96,45.95c3.77,1.87,7.5,3.16,11.72,3.05c6.7-0.17,12.71-2.12,19.01-4.05c1.44-0.45,2.99-0.43,4.43,0.05
	c7.36,2.47,17,5.49,23.93,3.12c2.68-0.92,6.31-2.53,10.89-4.82c27.49-13.75,57.4-28.57,89.75-44.45c1.63-0.8,3.7-1.68,6.22-2.63
	c0.32-0.11,0.53-0.33,0.63-0.66c0.61-1.96,1.12-3.95,1.55-5.98c4-18.89,8.01-39.14,12.04-60.75c3.68-19.79,6.88-38.9,9.6-57.35
	c0.73-4.92,0.43-4.98-0.9-0.19c-4.73,17.2-9.99,34.04-15.31,51.11c-3.14,10.08-6.73,20.86-11.08,30.44
	c-6.23,13.75-15.18,26.24-26.86,37.47c-0.15,0.14-0.3,0.15-0.46,0.02l-0.26-0.2c-0.12-0.09-0.13-0.19-0.03-0.3
	c8.59-9.57,13.15-21.16,17.45-33.24c3.78-10.62,6.54-21.87,8.27-33.76c0.65-4.44,0.96-7.96,0.94-10.55
	c-0.01-0.65-0.14-0.68-0.41-0.08c-0.6,1.3-0.93,2.74-1.45,4.08c-5.37,13.97-12.21,27.01-20.52,39.11
	c-4.54,6.62-9.61,12.11-15.59,17.41c-0.4,0.36-0.68,0.83-0.81,1.35c-0.31,1.31-0.71,2.55-1.18,3.72c-0.22,0.55-0.41,0.54-0.57-0.04
	c-0.4-1.45-0.55-2.92-0.44-4.41c0.04-0.53-0.53-0.89-1-0.63l-5.57,3.19c-0.45,0.25-0.75,0.62-0.9,1.11
	c-1.73,5.41-4.08,10.36-7.07,14.85c-1.06,1.61-1.69,3.26-2.38,5.04c-0.1,0.24-0.37,0.46-0.62,0.51c-0.13,0.03-0.19-0.02-0.2-0.15
	l-0.38-16.77c-0.01-0.4-0.2-0.53-0.57-0.38c-2.63,1.03-5.17,1.89-7.6,2.57c-1.17,0.32-1.89,1.05-2.16,2.18
	c-1.49,6.26-4.67,12.04-6.86,18.28c-0.49,1.41-0.9,1.39-1.21-0.08c-0.13-0.62-0.18-1.27-0.15-1.96c0.23-4.73,0.4-9.33,0.53-13.81
	c0.01-0.44-0.19-0.6-0.61-0.48c-2.38,0.68-4.9,1.28-7.57,1.8c-1.79,0.35-2.73,1.37-2.82,3.06c-0.25,4.83-0.81,9.39-1.68,13.66
	c-0.09,0.48-0.5,0.83-0.99,0.86c-4.91,0.32-5.27-2.87-5.41-6.89c-0.1-2.94-0.23-5.57-0.38-7.88c-0.03-0.4-0.24-0.58-0.63-0.53
	l-7.8,0.86c-1.09,0.12-1.62,0.73-1.6,1.82c0.1,5.13-0.22,10.24-0.95,15.33c-0.07,0.48-0.34,0.65-0.8,0.51
	c-2.27-0.71-3.69-1.98-4.24-3.83c-0.99-3.31-1.75-7.24-2.28-11.78c-0.05-0.46-0.31-0.69-0.78-0.68l-8.57,0.22
	c-0.43,0.01-0.77,0.34-0.8,0.77l-0.98,17.57c-0.03,0.54-0.48,0.96-1.02,0.94l-4.66-0.14c-0.52-0.01-0.8-0.28-0.84-0.8l-1.34-16.93
	c-0.07-0.92-0.57-1.39-1.49-1.41l-7.39-0.16c-0.7-0.01-1.07,0.33-1.1,1.03c-0.14,2.81-0.54,5.79-1.19,8.94
	c-0.63,3-2.28,5.04-4.96,6.11c-0.58,0.23-1.23-0.17-1.28-0.79l-1.27-15.02c-0.09-0.98-0.62-1.52-1.6-1.62l-6.95-0.73
	c-0.72-0.07-1.08,0.25-1.07,0.98c0.02,3.7,0.24,8.88-1.02,12.34c-0.13,0.35-0.39,0.64-0.72,0.79c-1.27,0.59-2.61,0.94-4.01,1.06
	c-0.75,0.07-1.18-0.27-1.28-1.02l-2.03-15.56c-0.01-0.07-0.07-0.14-0.14-0.16c-3.02-1.15-6.37-1.92-10.05-2.31
	c-0.15-0.01-0.22,0.04-0.21,0.15l0.61,16.07c0.02,0.45-0.59,0.61-0.8,0.21c-3.06-6.03-5.53-12.2-7.42-18.5
	c-0.43-1.43-1.36-2.34-2.79-2.74c-2.2-0.62-4.62-1.33-7.26-2.12c-0.39-0.12-0.58,0.03-0.56,0.44c0.28,5.37,0.22,10.61-0.17,15.72
	c-0.1,1.33-0.41,1.38-0.93,0.15c-1.17-2.74-2.5-5.4-4.01-7.99c-2.31-3.97-4.08-8.05-5.29-12.26c-0.16-0.56-0.56-1.02-1.1-1.25
	l-5.67-2.47c-0.35-0.15-0.55-0.04-0.6,0.33c-0.2,1.37-0.28,2.76-0.24,4.16c0.01,0.22-0.07,0.4-0.24,0.54
	c-0.09,0.07-0.21,0.07-0.35,0c-0.16-0.07-0.26-0.2-0.3-0.37c-0.61-2.47-1.44-4.18-2.49-5.12c-16.83-14.96-28.5-37.26-36.46-59.66
	c-0.81-2.27-1.13-2.21-0.97,0.2c1.37,20.51,6.61,40.53,15.72,60.08c2.89,6.19,7,11.53,11.23,16.91
	C266.93,656.97,266.83,657.07,266.08,656.56z M340.95,571.15c-2.61,7.25-3.79,14.49-3.52,21.71c0.2,5.39,3.86,8.45,9.08,8.88
	c5.73,0.47,11.27,0.4,16.63-0.19c1.1-0.12,1.69-0.73,1.78-1.84c0.86-11.41,0.1-24.05-7.31-33.33c-2.08-2.6-6.05-6.45-9.5-4.35
	C344.8,564.04,342.42,567.08,340.95,571.15z M400.02,592.81c-0.08-10.54-1.89-24.78-11.12-30.71c-0.79-0.51-1.62-0.65-2.48-0.4
	c-7.34,2.1-11.82,11.4-13.09,18.5c-1.2,6.73-1.44,13.47-0.72,20.23c0.06,0.55,0.49,0.98,1.04,1.05c4.39,0.52,9.23,0.71,14.53,0.57
	C394.47,601.89,400.08,600.4,400.02,592.81z M316.5,573.65c-2.26,6.55-3.25,13.04-2.98,19.47c0.16,3.79,1.99,6.06,5.49,6.81
	c2.72,0.59,5.57,0.81,8.55,0.67c1.15-0.06,2.1-0.93,2.26-2.07c0.79-5.75,1.53-11.61,2.2-17.56c0.7-6.25-1.42-13.26-7.61-15.82
	c-0.51-0.21-1.09-0.16-1.55,0.14C319.88,567.2,317.76,569.98,316.5,573.65z M406.67,592.68c0.25,2.47,0.72,4.88,1.43,7.25
	c0.09,0.32,0.37,0.56,0.71,0.6c2.95,0.35,5.89,0.29,8.81-0.17c5.69-0.89,6.36-6.35,5.97-11.14c-0.64-7.88-2.12-18.16-8.61-23.35
	c-1.45-1.15-3.37-0.78-4.69,0.33C401.76,573.4,405.74,583.36,406.67,592.68z M297.82,577.89c-1.21,3.6-3.37,11.51-1.36,14.99
	c1.68,2.92,4.48,4.47,8.4,4.64c0.71,0.03,1.35-0.44,1.52-1.12c1.33-5.07,2.38-10.27,3.13-15.59c0.67-4.77-1.2-7.98-4.94-10.51
	c-0.57-0.39-1.11-0.36-1.64,0.07C300.56,572.33,298.85,574.84,297.82,577.89z M441.41,591.12c0.3-7-1.64-15.2-6.79-20.4
	c-0.56-0.56-1.42-0.68-2.11-0.29c-5.76,3.22-5.34,8.94-4.11,14.68c0.79,3.69,1.58,7.6,2.36,11.74c0.1,0.56,0.59,0.96,1.15,0.95
	C435.43,597.8,441.22,595.39,441.41,591.12z M279.96,586.57c0.19,4.92,4.56,6.32,8.66,6.84c0.57,0.07,0.92-0.17,1.03-0.74
	c0.88-4.43,1.34-8.85,1.39-13.27c0.03-2.89-1.93-4.85-4.24-6.37c-1.47-0.97-2.77-0.79-3.89,0.56
	C280.13,576.92,279.81,582.35,279.96,586.57z M456.63,589.1c1.21-5.13,0.76-9.85-1.35-14.16c-1.27-2.59-3.03-3.19-5.29-1.8
	c-2.57,1.59-3.82,3.97-3.74,7.14c0.09,4.14,0.55,8.36,1.38,12.67c0.05,0.25,0.27,0.42,0.52,0.4
	C450.91,593.15,455.86,592.36,456.63,589.1z M281.53,602.49c-0.9-0.03-1.39,0.41-1.48,1.3c-0.62,6.37-0.72,18.76,6.93,21.2
	c0.47,0.15,0.98-0.09,1.16-0.55c0.29-0.75,0.49-1.51,0.59-2.29c0.65-4.91,0.93-10.19,0.82-15.84c-0.02-0.91-0.44-1.56-1.25-1.97
	C285.93,603.16,283.68,602.54,281.53,602.49z M449.72,603.88c-1.27,0.42-1.9,1.3-1.91,2.64c-0.01,3.99,0.14,8.17,0.47,12.52
	c0.14,1.87,0.52,3.71,1.13,5.51c0.12,0.38,0.55,0.58,0.92,0.43c2.35-0.91,4.53-2.55,5.36-5.06c1.7-5.21,2.22-10.56,1.55-16.06
	c-0.11-0.89-0.62-1.3-1.51-1.22C453.69,602.82,451.69,603.23,449.72,603.88z M305.92,608.62c-2.9-1.59-6.51-2.36-9.69-2.37
	c-0.44,0-0.8,0.33-0.85,0.76c-0.67,6.31,0.41,12.82,3.24,19.54c0.9,2.15,2.97,6.17,5.93,4.53c0.28-0.15,0.47-0.42,0.53-0.73
	c1.15-5.65,1.84-11.01,2.07-16.1c0.09-1.74-0.11-3.36-0.6-4.87C306.44,609.05,306.23,608.79,305.92,608.62z M432.91,607.76
	c-1.17,0.49-2.37,0.72-2.59,2.17c-0.86,5.49,0.52,11.57,1.3,17.08c0.2,1.43,0.68,2.72,1.44,3.86c0.38,0.57,1.13,0.77,1.74,0.45
	c5.38-2.78,6.9-14.06,7.08-19.73c0.05-1.65-0.14-3.27-0.59-4.85c-0.09-0.31-0.29-0.46-0.6-0.47
	C437.97,606.22,435.38,606.72,432.91,607.76z M420.31,633.98c3.24-8.23,4.45-15.99,3.63-23.28c-0.04-0.35-0.34-0.61-0.69-0.6
	c-4.01,0.1-7.79,0.84-11.34,2.22c-0.81,0.32-1.37,1.08-1.41,1.96c-0.23,4.63,0.13,9.21,1.06,13.76c0.48,2.37,1.27,10.11,4.72,10.16
	C418.46,638.23,419.63,635.7,420.31,633.98z M312.7,612.03c-0.35,8.69,1.88,17.6,6.3,25.37c0.53,0.93,1.71,1.25,2.63,0.72
	c1.74-1,2.86-2.61,3.37-4.82c1.16-5.12,1.86-10.21,2.11-15.27c0.07-1.35-0.08-2.59-0.47-3.72c-1.16-3.39-10.03-3.93-12.5-3.76
	C313.22,610.61,312.74,611.1,312.7,612.03z M336.55,637.27c0.53,1.67,1.38,3.11,2.56,4.34c0.36,0.38,0.92,0.52,1.41,0.34
	c3.01-1.05,4.65-3.31,5.17-6.39c1.09-6.52,1.44-12.25,1.07-17.2c-0.13-1.77-1.19-3.61-3.01-4.14c-2.19-0.64-9.76-2.82-10.63,0.15
	c-0.72,2.44-0.84,4.95-0.36,7.53C333.75,627.31,335.02,632.44,336.55,637.27z M391.29,633.03c0.35,2.88,2.7,10.36,7.06,8.89
	c0.34-0.12,0.63-0.35,0.82-0.66c0.71-1.17,1.27-2.39,1.68-3.68c1.03-3.28,7.78-24.79,0.39-24.7c-2.81,0.04-5.73,0.59-8.78,1.66
	c-1.03,0.36-1.74,1.31-1.8,2.4C390.39,622.07,390.6,627.43,391.29,633.03z M362.42,615.45l-7.08-0.08c-1.78-0.02-3.24,1.4-3.26,3.18
	v0.25c-0.17,13.5,2.67,24.48,6.33,24.53h0.26c3.66,0.05,6.76-10.86,6.93-24.37v-0.25C365.62,616.94,364.2,615.48,362.42,615.45z
	 M382.04,615.48l-7.96,0.32c-1.51,0.06-2.68,1.34-2.62,2.85l0.06,1.49c0.52,13.05,3.85,23.51,7.43,23.37l0.46-0.02
	c3.58-0.14,6.06-10.84,5.53-23.89l-0.05-1.49C384.82,616.6,383.55,615.42,382.04,615.48z"/>
<path d="M127.41,268.15c-32.9-12.6-67.55-25.71-98.07-38.59c-0.2-0.08-0.3-0.31-0.23-0.51c0.74-2.31,1.6-4.64,2.59-6.99
	c4.19-9.99,9.23-19.86,15.1-29.6c0.11-0.19,0.27-0.23,0.46-0.12c27.05,14.85,53.21,28.98,78.46,42.41c4.55,2.42,9.26,5.2,14.13,8.33
	c0.39,0.24,0.47,0.77,0.17,1.12c-0.57,0.66-1.03,1.34-1.37,2.05c-3.44,7.11-6.74,14.22-9.89,21.33
	C128.53,268.1,127.94,268.35,127.41,268.15z"/>
<path d="M624.86,228.68c17.89-9.4,37.08-19.68,57.55-30.83c2.65-1.44,5.36-2.99,8.13-4.65c0.91-0.55,1.63-0.36,2.16,0.56
	c4.52,7.95,9,16.74,13.43,26.39c1.35,2.95,2.55,5.89,3.59,8.83c0.13,0.38-0.04,0.8-0.4,0.98c-1.76,0.91-3.6,1.74-5.52,2.51
	c-29.07,11.63-60.1,23.6-93.09,35.91c-0.37,0.14-0.63,0.03-0.78-0.32c-3.67-8.41-7.48-16.42-11.43-24.02
	c-0.22-0.43-0.06-0.96,0.36-1.2C607.82,237.8,616.49,233.08,624.86,228.68z"/>
<path d="M399.37,276.93c0,16.87-13.68,30.55-30.55,30.55s-30.55-13.68-30.55-30.55s13.68-30.55,30.55-30.55
	S399.37,260.06,399.37,276.93z"/>
<path d="M16.17,264.41l103.49,30.17c0.36,0.1,0.48,0.33,0.37,0.69c-3.15,9.88-5.52,20.08-7.12,30.59c-0.03,0.21-0.21,0.35-0.42,0.33
	c-1.54-0.13-3.12-0.32-4.75-0.57c-30.92-4.79-62.01-9.78-93.26-14.95c-2.69-0.45-5.28-0.89-7.79-1.34
	c-0.61-0.11-0.88-0.48-0.81-1.09c1.81-15.59,5-30.07,9.57-43.45C15.57,264.43,15.81,264.3,16.17,264.41z"/>
<path d="M622.38,293.59c6.73-1.93,13.84-3.96,21.34-6.1c27.07-7.7,52.96-15.32,77.65-22.87c0.93-0.28,1.54,0.04,1.83,0.97
	c3.94,12.6,7.01,25.67,9.21,39.22c0.19,1.22,0.34,2.44,0.43,3.65c0.02,0.3-0.12,0.48-0.42,0.53l-105.47,17.42
	c-0.51,0.08-0.99-0.25-1.08-0.75c-1.95-10.11-4.35-20.19-7.21-30.25c-0.09-0.33,0.02-0.55,0.33-0.68
	C620.06,294.31,621.19,293.93,622.38,293.59z"/>
<path d="M297.06,423.02c1.29-1.44,1.11-1.66-0.55-0.67c-4.51,2.7-8.93,5.31-13.64,7.35c-13.02,5.62-28.39,10.13-42.4,10.28
	c-19.9,0.2-28.16-17.79-29.64-34.9c-0.8-9.31-0.86-18.69-0.18-28.14c0.52-7.14,1.92-13.48,4.2-19.03
	c13.16-32.02,48.5-39.93,79.35-41.27c0.4-0.01,0.77-0.22,0.99-0.56c1.07-1.67,1.8-4.69,4.22-4.78
	c21.17-0.76,36.39,13.81,44.99,31.98c7.77,16.41,6.32,35.17-1.19,51.81c-9.01,19.97-26.22,36.48-45.99,46.09
	c-14.8,7.2-30.63,11.98-47.34,12.76c-0.24,0.01-0.46-0.05-0.65-0.18s-0.15-0.42,0.07-0.48c8.83-2.51,17.37-6.8,25.21-11.49
	C282.77,436.84,290.29,430.59,297.06,423.02z"/>
<path d="M440.01,422.06c-1.09-0.82-1.18-0.72-0.28,0.3c12.57,14.37,27.95,24.37,46.16,30.02c3.04,0.95,2.97,1.36-0.21,1.25
	c-11.11-0.39-20.91-2.1-29.38-5.12c-23.53-8.38-45.98-24.73-58.12-46.06c-7.14-12.53-11.68-27.56-9.88-41.9
	c2.2-17.57,12.88-36.17,28.95-44.62c6.35-3.33,13.47-4.8,21.36-4.41c1.95,0.1,3.02,2.66,3.59,4.21c0.26,0.71,0.77,1.08,1.53,1.09
	c22.99,0.5,49.49,5.61,66.38,22.44c9.85,9.82,15.5,21.8,16.93,35.94c1.35,13.41,0.97,26-1.15,37.79
	c-1.55,8.65-5.99,17.02-13.1,22.19c-5.53,4.02-12.42,5.6-20.67,4.75c-14.05-1.44-28.74-5.68-44.09-12.73
	C445.12,425.86,442.56,423.99,440.01,422.06z"/>
<path d="M107.03,390.71c-35.32,1.77-70.53,4.06-104.95,7.33c-0.36,0.03-0.69-0.24-0.72-0.6c-1.57-17.03-1.78-34.5-0.63-52.41
	c0.02-0.31,0.18-0.45,0.49-0.42c30,2.41,61.02,4.72,93.05,6.91c4.78,0.33,9.58,0.77,14.4,1.32c0.34,0.04,0.5,0.23,0.47,0.58
	c-0.99,11.89-1.54,24.17-1.67,36.83C107.47,390.5,107.28,390.7,107.03,390.71z"/>
<path d="M715.01,395.98c-25.06-2.07-52.84-3.84-83.33-5.31c-0.27-0.01-0.4-0.15-0.41-0.41c-0.31-12.29-0.95-24.57-1.92-36.84
	c-0.03-0.36,0.24-0.67,0.6-0.7l106.76-8.2c0.36-0.03,0.68,0.24,0.71,0.6c1.44,16.61,1.31,33.91-0.4,51.9
	c-0.04,0.42-0.27,0.61-0.68,0.58C728.61,397.06,721.5,396.52,715.01,395.98z"/>
<path d="M368.41,478.9c-1.58,8.47-3.13,15.54-4.65,21.21c-2.26,8.43-8.87,12.89-17.54,11.99c-16.24-1.69-13.98-21.8-12.23-32.7
	c2.4-14.94,7.49-31.72,15.26-50.35c5.1-12.23,11.45-23.67,19.05-34.3c0.29-0.4,0.89-0.4,1.18,0c2.96,4.2,5.7,8.56,8.23,13.09
	c10.73,19.24,18.62,39.24,23.65,60c1.63,6.69,2.78,13.39,3.47,20.1c0.8,7.81-0.28,18.1-7.35,22.1c-4.51,2.55-9.32,2.92-14.45,1.12
	c-5.36-1.89-8.05-7.26-9.32-12.54c-1.48-6.11-2.81-12.67-4-19.7C369.3,476.48,368.86,476.47,368.41,478.9z"/>
<path d="M719.05,473.96c-29.41-10.37-58.26-20.27-86.54-29.72c-0.43-0.14-0.65-0.44-0.66-0.9l-0.39-25.73
	c-0.01-0.29,0.25-0.52,0.53-0.48c28.93,3.56,57.28,8.71,85.46,13.4c4.55,0.75,9.11,1.58,13.68,2.47c0.18,0.03,0.3,0.21,0.26,0.39
	c-3.01,13.65-6.71,26.97-11.12,39.98C720.1,473.87,719.55,474.14,719.05,473.96z"/>
<path d="M105.68,444.72l-86.65,29.84c-0.18,0.06-0.3,0-0.36-0.18c-4.48-13.43-8.79-27.1-11.45-40.7c-0.03-0.17,0.08-0.33,0.25-0.36
	c32.16-5.86,62.27-10.86,90.34-15c2.55-0.37,5.2-0.67,7.95-0.89c0.29-0.02,0.53,0.2,0.53,0.49l-0.14,26.14
	C106.15,444.36,105.96,444.62,105.68,444.72z"/>
<path d="M289.94,463.68c-4.65,1.89-9.6,3.2-14.87,3.91c-0.08,0.01-0.14-0.02-0.19-0.09l-0.2-0.32c-0.11-0.18-0.07-0.3,0.13-0.36
	c2.36-0.71,5.33-2.17,8.92-4.39c15.19-9.4,28.8-19.63,40.81-30.7c0.04-0.03,0.08-0.05,0.13-0.04c0.11,0.01,0.19,0.06,0.25,0.13
	c0.04,0.05,0.04,0.1,0,0.15c-6.14,8.53-11.56,15.07-16.27,19.6C303.27,456.74,297.03,460.78,289.94,463.68z"/>
<path d="M461.37,467.61c-12.16-2.11-22.68-6.62-31.53-15.11c-6.07-5.83-11.45-12.1-16.13-18.8c-1.33-1.9-1.12-2.09,0.63-0.57
	c12.55,10.9,26.25,21.06,41.12,30.47c1.97,1.25,4.08,2.31,6.33,3.2c0.11,0.05,0.15,0.13,0.11,0.25l-0.09,0.29
	C461.74,467.56,461.6,467.65,461.37,467.61z"/>
<path d="M632.97,475.28l74.25,35.38c0.36,0.18,0.51,0.62,0.32,0.97l-17.33,33.32c-0.19,0.37-0.65,0.49-1,0.27l-56.7-35.31
	c-0.2-0.13-0.33-0.36-0.33-0.6l-0.22-33.39C631.95,475.4,632.5,475.05,632.97,475.28z"/>
<path d="M94.87,480.88c3.23-1.51,6.59-3.13,10.1-4.84c0.39-0.19,0.85,0.09,0.85,0.53l-0.17,32.8c-0.01,0.71-0.38,1.37-0.98,1.74
	c-17.43,10.7-35,21.56-52.69,32.59c-0.81,0.5-1.57,1.04-2.29,1.62c-0.31,0.26-0.78,0.16-0.98-0.19
	c-5.83-10.41-11.49-21.39-16.98-32.96c-0.2-0.43-0.03-0.94,0.4-1.15C49.82,502.25,70.74,492.2,94.87,480.88z"/>
<path d="M636.07,618.16c-0.79,0.85-1.38,2.11-2.31,2.66c-0.56,0.33-0.84,0.17-0.84-0.48l-0.34-72.78c0-0.64,0.25-0.76,0.74-0.35
	l35.61,29.63c0.3,0.25,0.33,0.54,0.1,0.85C658.4,592.36,647.42,605.85,636.07,618.16z"/>
<path d="M72.01,581.83c-0.96-1.29-1.87-2.58-2.73-3.89c-0.3-0.44-0.21-1.03,0.2-1.37l34.38-28.86c0.17-0.14,0.4-0.21,0.63-0.2
	c0.54,0.03,0.81,0.31,0.8,0.83c-0.25,20.56-0.41,41.02-0.46,61.38c-0.01,3.13,0.08,6.32,0.25,9.56c0.1,1.89-0.48,2.13-1.74,0.73
	C91.97,607.36,81.52,594.63,72.01,581.83z"/>
</svg>
