<?xml version="1.0" encoding="UTF-8"?>
<svg id="katman_1" data-name="katman 1" xmlns="http://www.w3.org/2000/svg" version="1.1" viewBox="0 0 98.7 98.7">
  <defs>
    <style>
      .cls-1 {
        fill: #000;
        stroke-width: 0px;
      }
    </style>
  </defs>
  <path class="cls-1" d="M49.4,0C22.1,0,0,22.1,0,49.4s22.1,49.4,49.4,49.4,49.4-22.1,49.4-49.4c0-27.3-22.1-49.4-49.4-49.4ZM49.4,6.8c7.7,0,14,6.3,14,14s-6.3,14-14,14-14-6.3-14-14,6.3-14,14-14ZM7.6,40.7c0-7.7,6.3-14,14-14s14,6.3,14,14-6.3,14-14,14-14-6.3-14-14ZM32.6,86c-7.7,0-14-6.3-14-14s6.3-14,14-14,14,6.3,14,14c0,7.7-6.3,14-14,14ZM42.5,48.1c0-4.1,3.3-7.4,7.4-7.4s7.4,3.3,7.4,7.4-3.3,7.4-7.4,7.4c-4.1,0-7.4-3.3-7.4-7.4ZM65.8,86c-7.7,0-14-6.3-14-14s6.3-14,14-14,14,6.3,14,14-6.3,14-14,14ZM77.4,54.7c-7.7,0-14-6.3-14-14s6.3-14,14-14,14,6.3,14,14-6.3,14-14,14Z"/>
</svg>