<?xml version="1.0" encoding="utf-8"?>
<!-- Generator: Adobe Illustrator 24.0.0, SVG Export Plug-In . SVG Version: 6.00 Build 0)  -->
<svg version="1.1" id="Layer_1" xmlns="http://www.w3.org/2000/svg" xmlns:xlink="http://www.w3.org/1999/xlink" x="0px" y="0px"
	 viewBox="0 0 800 600" style="enable-background:new 0 0 800 600;" xml:space="preserve">
<style type="text/css">
	.st0{fill-rule:evenodd;clip-rule:evenodd;fill:#FFFFFF;}
	.st1{fill-rule:evenodd;clip-rule:evenodd;fill:#2C3694;}
	.st2{fill-rule:evenodd;clip-rule:evenodd;fill:#231F20;stroke:#231F20;stroke-width:8.928800e-02;stroke-miterlimit:2.6131;}
	.st3{fill-rule:evenodd;clip-rule:evenodd;fill:#FFF100;stroke:#231F20;stroke-width:8.928800e-02;stroke-miterlimit:2.6131;}
	.st4{fill-rule:evenodd;clip-rule:evenodd;fill:#EC1C24;stroke:#231F20;stroke-width:8.928800e-02;stroke-miterlimit:2.6131;}
	.st5{fill-rule:evenodd;clip-rule:evenodd;fill:#3278B8;stroke:#231F20;stroke-width:8.928800e-02;stroke-miterlimit:2.6131;}
	.st6{fill-rule:evenodd;clip-rule:evenodd;fill:#FFFFFF;stroke:#231F20;stroke-width:8.928800e-02;stroke-miterlimit:2.6131;}
	.st7{fill-rule:evenodd;clip-rule:evenodd;fill:#231F20;}
</style>
<g>
	<polygon class="st0" points="135.2,35.2 664.8,35.2 664.8,564.8 135.2,564.8 135.2,35.2 	"/>
	<path class="st1" d="M276.1,144.7c-0.6,0.2-1.6,1.3-1.6,1.9c0.2,0.9,1.2,1.6,0.8,2.7c-0.8,2.4-3.4,2.6-5.6,3.6
		c-0.7,0.3-2,0.6-2.3,1.3c-0.6,1.6,0,1.9,1.6,2.4c3,1.1,7.7-4.2,9.7,0.3c0.3,2,1.5,4,2.3,5.6c0.4,0.9,0.3,2,1.2,2.7
		c0.7,0.6,2.2-0.7,2-1.5c-0.3-0.8-0.5-1.6-0.7-2.4c-0.8-2.8-2.6-5.1-3.3-7.8c-0.2-1.1,1.7-1.6,2.5-2c0.4-0.2,1.1-1.6,1.5-2
		c0.9-1.1,2-2.2,1.4-3.6c-0.3-0.4-0.5-1.7-1.1-1.4c-1.5,0.7-2.5,2.4-3.9,3c-1.7,0.8-2.3,0-2.9-1.5C277,145.8,277,144.2,276.1,144.7
		L276.1,144.7z M296.2,142.2c0.6,1.3,1.5,2.2,0.1,3.3c-1.2,0.8-2.4,1.4-3.5,1c-1.1-0.3-1.2-2-1.6-3c-0.2-0.6-0.9-0.9-1.1-1.4
		c-0.2-0.4-0.3-1.2-0.2-1.6c0.2-0.5-0.8-1.6-1.2-2.1c-0.2-0.3-1.4-1.6-1.8-0.6c-0.6,1.6,1.3,3.7,2,5.1c0.5,1,1.5,3.2,1.5,4.4
		c-0.1,1.1-1.1,1.5-1.4,2.3c-0.7,2,1.3,2.7,2.5,3.4c1.1,0.7,2.2,2.9,2.8,4c0.2,0.8,0.5,1.5,1.1,1.8c0.7,0.5,1.4-0.6,1.1-1.2
		c-0.5-1-0.4-2.1-1.1-3.1c-0.7-1.1-1.6-3.8-0.1-4.4c0.4-0.2,1-0.5,1.4-0.5c1,0,0.6-2,2.2-0.9c0.9,0.5,1.4,2.4,2,3.4
		c0.7,0.7,0.7,2.5,2,2.4c1.7-0.2,1.3-1.1,0.7-2.3c-0.7-1.6-1.9-2.6-2-4.6c0-1,0.2-2.5-0.3-3.4c-0.2-0.5-1.1-0.7-1.4-1.1
		c-0.3-0.7-0.7-1.2-1-1.8c-0.4-1-0.8-1.9-1.2-2.9c-0.3-0.8,0-1.8-0.5-2.5c-0.7-1-1.4-3.9-2.8-3.9c-3.1-0.1-0.6,3.3,0.1,4.7
		C295.1,138.5,295.7,140.4,296.2,142.2L296.2,142.2z M311.2,140.4c-0.8,0.4-1.6,0.4-1.9,1.1c-0.3,1.1,0.8,1.8,1.4,2.5
		c0.4,0.5,2.1,0.3,2.6,0.1c0.5-0.2,1.4-0.2,2-0.5c1.7-0.7,2.8-3.1,3.9-4.5c0.9-1.1,2-1.2,2-2.9c0-1.1,1.2-1.1,2-0.8
		c1.1,0.4,0.6,2,0.6,2.8c0,1-0.7,2.3-1.6,2.9c-2,1.8-2.5,4.6-5.2,5.9c-1.2,0.6-3.3,1.1-4.6,1.1c-2,0-5.5-2.2-6.1-4.3
		c-0.4-1.5-1.5-2.5-2.2-3.8c-0.2-0.3-0.5-2.2-0.5-3.1c0.3-4.3,0.2-7.3,1.7-11.6c0.7-1.9,4.1-2.5,5.8-1.6c1.5,0.7,2.6,1.7,3.4,3.6
		c0.6,1.4,0.6,2.6,1.1,4.1c0.6,1.3-0.6,2.4-0.9,3.6C314.2,137.3,313.3,139.5,311.2,140.4L311.2,140.4z M309.7,127.3
		c-2.1,0.2-2.9,4.3-2.7,5.9c0.2,1.2-0.8,3.4,0.9,4c1.7,0.6,2-1.1,3.2-1.7c0.7-0.4,1.3-0.9,0.9-1.8c-0.7-1.4,1.2-2.8,0.4-4.6
		C311.9,127.9,311.1,126.6,309.7,127.3L309.7,127.3z M259.4,174c-9.3-1.5-18.6,9.8-23.5,15.9c-1.7,2-1.5,4.3-0.3,6.7
		c1.1,2.5,3.1,2.9,4.2,4.6c2,4,27.6,5.8,32.9,8c2.1,0.8,3.5,2.1,3.2,5.7c-0.3,3-1,5.2-3.9,6.5c-1.3,0.6-2,2-2.9,2.5
		c-1.3,0.6-2.9,0.5-4.3,1.1c-1.1,0.6-2,1.6-3.8,2c-3.1,0.7-6.2,1.5-9.3,2.1c-1.3,0.3-5.1,1.3-5.7,0.1c-0.3-0.7-0.6-1.5-1-2.1
		c-1.6-3.5,5.8-3.1,7.5-3.5c1.8-0.4,3-2,4.6-2.8c1.7-0.7,3.7-0.9,5.5-1.7c2.9-1.4,7-3.5,9-5.4c1.5-1.3-2.5-1-3-1.1
		c-1-0.3-2.4-1.7-3.6-2.1c-0.9-0.3-3.4,0.4-4.6,0.4c-3.5-0.2-8.2-0.5-11.6-1.7c-0.7-1.5-3.9-0.7-5.1-0.7c-1,0-2.1-1.7-3.6-1.8
		c-2.7,0-6.9-2.9-8.2-5.6c-0.8-1.9-1.6-4-1.1-6c-1.8-3.9,2.6-7.9,3.8-11c4.2-9.6,19.9-20.5,27.7-13.4c1.5,1.1,3.3,6.8,0.2,5.7
		C260.8,175.8,261.9,174.6,259.4,174L259.4,174z M272.8,186.5c-2.2,1.1,0.5,2.9,1,4.1c0.3,0.7,0.9,0.7,0.7,2.5
		c-0.6,0.7,0.8,2.9,1.1,3.4c1.6,3.4,0.7,8.9,4.1,11.4c1.6,1.1,2.8-0.4,2.9-2c0.1-1.1-1.1-2.1-1.4-3.1c-1.5-4.3-1.6-7.2-2.9-9.7
		c-0.3-1.3-0.7-2.9-2.7-5.1C274.8,186.3,273.9,186,272.8,186.5L272.8,186.5z M289.9,187.3c-0.9-0.9-1.3,0.2-1.6,1
		c-0.6,1,0.9,1.8,0.8,2.6c-0.4,2.5,1.5,2.9,1.4,4.9c0,1.8,0.7,3.1,0.5,5c-0.2,1.1-2.1,1.3-2.9,0.2c-2.3-2.9-1.6-7.5-2.9-10.8
		c-0.9-2.5-1.4-4.6-0.8-7.4c0.4-1.6,1.5-1.8,3-1.8c1.6,0,2.6,2,3.6,3.1c0.8,0.9,2,1.6,2.7,2.5c0.7,1,2,1.3,2.2-0.4
		c0.2-0.8-0.4-1.7-0.6-2.5c-0.2-0.6,0.3-1.7,0.1-2c0.4-2.5,0-5.8,3.3-4.6c1.3,0.5,1,2.2,1.7,3.5c1.3,2.1,2.5,4.3,3.8,6.5
		c1,1.6,0.5,4.2,1.5,5.6c1.4,2.1-0.3,6.9-2,3.3c-0.8-1.7-0.4-4.2-2-6.1c-0.3-0.8-1.1-4.6-2.5-3.9c-1.1,0.5-1.5,1.8-1.3,3.3
		c0.1,0.8-0.8,2.8-1.1,3.4c-0.6,1.6-2.3,0.2-3.5-1.1c0-0.9-1.1-1.2-1.4-1.5C289.9,189.7,291.1,187.7,289.9,187.3L289.9,187.3z
		 M308.3,176.9c0.5,1.5,1.6,3.4,0.2,4.3c-0.7,0.4-2.5,1.7-1.7,2.6c0.3,0.4,1.1,2,1.6,2.1c0.4,0.2,1.1-0.4,1.6-0.2
		c1.7,0.7,2.2,4.6,3.8,4.8c0.9,0,1.6-0.8,2-1.2c0.2-1.1-0.8-2.9-1.2-3.8c-1.3-2.9,1.1-3,3.3-4.1c4-1.8,5.6-6.7,2.4-9.7
		c-2.2-2.1-2.4-3.8-5.5-5.3c-1.3-0.6-3.7-1-4.7,0.3c-0.7,0.8-1.3,2-1.6,3.1c-0.2,0.7-0.4,3.3-0.2,4.1
		C308.4,174.9,307.9,175.9,308.3,176.9L308.3,176.9z M318.2,173c2,2.3-1.5,2.9-3.4,4.7c-2.9,2-2.9-1.3-3-3.4c0-0.6-0.4-1.3-0.5-1.9
		c-0.1-0.9,0.2-2,1.2-2.5C314.8,168.7,316.5,173,318.2,173L318.2,173z M331.3,155.4c1,0.2,2.5,1.2,2.8,2.5c0.1,1.6-1.7,1.8-3.5,3.5
		c-1.5,0.9-1.8,2-2.7,3.2c-0.7,1,0.3,2,0.7,3.1c0.6,2.1,3.3,3,5.5,3.8c0.8,0.3,1.6,0.8,2.1,1.5c0.8,2.2,2.9,4.2,1.5,7
		c-1,2.7-6.2,7.2-8.8,5.2c-0.8-0.7-1.2-2.9-1.3-3.7c-0.2-1.1,4-2.9,4.8-3.9c1.4-1.7-2.5-3.3-3.8-3.8c-2.3-0.8-6.1-4.7-5-7.9
		C323.2,164.8,326.2,157.1,331.3,155.4L331.3,155.4z M346,161.9c-0.4,0.1-0.7,0.1-1.1,0.1c-1-0.1-2-0.7-3-0.2
		c-3.8,1.7,0.6,6.6-0.8,9.2c-1.1,2.2,1.8,5.6,3.3,7.1c1.3,1.5,3.8-0.8,5.1-1c2.7-0.3,4.4-5.1,3.8-7.2c-0.4-1.3,0.1-2-0.8-3.1
		c-1.1-1.1-0.7-2.6-2.9-3.9C348.8,162,347,161.6,346,161.9L346,161.9z M346.1,165.9c1.1-0.5,2.5,0.6,3.3,1.5
		c1.1,1.1-0.3,2.5,0.2,3.8c0.2,0.5,0,2.3-0.8,2c-0.9-0.3-1.6,0.9-2.4,1.2c-1.5,0.7-1.6-0.5-2.1-1.6
		C343.1,170.3,342.9,166.4,346.1,165.9L346.1,165.9z M359.1,146.2c-1.4,0.2-1.1,1.7-1.4,2.5c-0.3,1,1.7,1.7,2,2.5
		c1,1,2.6,1.4,2.9,2.9c1,1.2,1.2,1.6,1.3,3c0.2,1.9,2.4,3.1-0.6,3.9c-1.4,0.4-2.9-2.1-4.7-2.1c-1.6,1.1-2.9-0.6-3.3,1.6
		c-0.5,1.3,1.4,2.5,1.3,3.6c0,1.5,0.4,2.3,1.4,3.6c0.3,0.4,0.3,1.3,0.3,2.1c0.6,1.2,0.8,3.4,2.1,1.2c0.7-1.1,0.7-2.5,0.8-3.8
		c-1.5-4.3,2.9,0.2,5.5-1.2c1.5-0.7,2.1-3.8,2-5.2c-0.4-3.2-3.3-5.5-3.9-8.6C364.4,149.7,361,147.5,359.1,146.2L359.1,146.2z
		 M369.8,151.4c-2.3-4.8-0.9-10.6,2.5-14.9c1.2-1.5,1.2-1.6,3-2c1.2-0.3,3-1.2,4-0.2c0.5,0.6,1.8,1.2,1.5,2c-0.6,1.7,3,4.3-0.3,4.7
		c-1.3,0.2-1.1-1-1.6-2c-0.7-1.5-1.7-0.7-3-0.2c-2.2,1.1-4,4.6-3.4,6.8c0.5,1,0,2.1,0.3,2.9c0.7,1.5,3.9,2.1,5.4,2.4
		c3.4,0.4,8.4,3.1,6.9,7.4c-0.9,2.4-2.1,7.4-4.6,8.6c-2.2,1.1-4.7,4.5-6.3,1.1c-0.3-2.5,2.9-2.1,3.3-4.3c2.4-1.1,3-3.2,3.8-5.1
		c0.5-1.4-2.5-2.8-3.5-2.5c-1.4,0.5-2-0.7-3.3-1.2C372,153.9,371,154,369.8,151.4L369.8,151.4z"/>
	<path class="st2" d="M279.5,390.3c-2-6.7-4.8-13.5-6.5-16.8c-2.9-1.5-5.7-3.6-8.1-6.2c-2.5-2.9-4.7-6.2-6.3-10.1
		c-1.6-3.8-2.5-8.2-2.5-12.8c-0.1-7.8,2.4-16.4,8.7-25.2c-1.5-1.6-2.5-3.4-2.2-5.5c0.1-1.9,1.2-4,3.7-6.5c0.1-0.1,0.2-0.2,0.2-0.2
		c0.3-0.3,0.7-0.7,1.1-1l0,0c15.3-13.6,29.5-19.1,42-20.4c2.5-0.3,4.9-0.4,7.3-0.4c2.7-3.1,5.8-5.1,9.3-6.2c3.5-1.1,7.4-1.1,11.8,0
		c2.4-1.6,4.7-3.3,7.1-4.9c2.5-2,5.1-2.8,7.8-2.6c1.5,0.2,3,0.5,4.7,1.1c3.3-2.4,6.1-5,8.7-7.7c2.4-2.5,4.4-5.2,6.3-7.9
		c-0.9-0.7-1.6-1.6-2.2-2.5c-0.7-1.5-1.2-3.1-1.2-4.9c-0.2-2.4,0.4-4.9,1.6-7.2l0,0c1-2,2.5-3.9,4.3-5.2c1.4-1,2.9-1.6,4.6-1.9
		c1.6-0.2,3.4-0.1,5.1,0.7c8.6-17.3,15.9-34.8,22.3-52.4c6.6-17.8,12.1-35.7,17.3-53.6c0.7-3,0.9-6.1,1-8.7c0.1-1.4,0.1-2.5,0.2-3.5
		c0.1-0.7,0.3-1.2,0.7-1.6c0.3-0.4,0.7-0.7,1.1-0.7c0.4-0.1,0.9,0,1.4,0.2c0.5,0.3,1.1,0.8,1.6,1.6c1.2,1.3,1.7,2.9,2.2,4.6
		c0.4,1.1,0.8,2.3,1.5,3.4c0.2,0.3,0.3,0.6,0.5,0.7h0.1l0.1,0.1c0.1,0,0.1,0,0.2-0.1c0.2-0.1,0.3-0.2,0.5-0.5
		c0.7-0.9,1.1-2.1,1.5-3.3c0.5-1.6,1.1-3.4,2.4-4.9c0,0,0,0.1-0.1,0.1c0.6-0.8,1.1-1.3,1.7-1.6c0.3-0.2,0.7-0.2,1.1-0.2
		c0.3,0,0.7,0.1,1,0.3c-0.1,0-0.1,0-0.1,0c0.5,0.3,0.9,0.9,1.3,1.6c0.3,0.7,0.6,1.6,0.7,2.7c0.3,1,0.4,2.1,0.7,3.4v0.2
		c0,0.7,0.1,1.3,0.2,1.9c0,0.7,0.1,1.1,0.2,1.6c0.2,1.2,0.4,1.8,0.7,1.9c0.2,0.1,0.6-0.2,1.1-0.8c1.2-1.3,2.1-2.9,3.1-4.6
		c0.7-1.4,1.6-2.9,2.5-4.1c0.7-0.9,1.3-1.6,2-1.9c0.7-0.4,1.2-0.5,1.8-0.4c0.7,0.2,1.2,0.5,1.6,1.1c0.4,0.7,0.8,1.5,1,2.5
		c0.5,1.8,0.6,3.6,0.8,5.3c0.1,1.1,0.2,2.2,0.3,3.2c0.3,1.5,0.5,2.3,0.8,2.5c0.3,0.1,0.8-0.2,1.5-0.9c0.3-0.2,0.7-0.7,1.2-1.4
		c1.6-1.7,3.9-4.5,6-5.8c0,0,0,0-0.1,0c2.6-1.8,4.3-2,5.3-1c0.9,0.8,1.1,2.5,1,4.7c0.1,1.6,0.2,3.1,0.3,4.5c0.1,1.5,0.3,2.8,0.5,4.2
		c0.4,1.6,0.8,2.5,1.2,2.7c0.2,0.1,0.6-0.2,1.2-0.9l0,0c1.6-2,3.3-3.8,5-5.4c0.3-0.3,0.7-0.7,1-1v-0.1c1.4-1.2,2.5-2,3.5-2.2
		c0.9-0.3,1.7-0.2,2.4,0.1c0.7,0.3,1.1,0.8,1.5,1.5c0.4,0.8,0.6,1.8,0.6,2.6v0.1c-0.3,3.1-0.6,6.2-0.8,9.3l0,0
		c-0.1,1.2,0,1.8,0.2,1.9h-0.1c0.1,0,0.4-0.2,1-0.7l0,0c0.7-0.7,1.4-1.4,2-2c1.3-1.4,2.7-2.8,4.5-4.2h0.1c3.1-2,4.8-2,5.8-1.1
		c0.9,0.9,0.9,2.5,0.9,3.9l0,0c0,1.5,0,2.9-0.1,4.4c0,1.4,0,2.9-0.1,4.3c0.1,1.8,0.2,2.3,0.2,2.3c0.1,0,0.5-0.2,0.8-0.5l0,0
		c0.2-0.2,0.4-0.3,0.6-0.4c0.9-0.8,1.9-1.6,2.9-2.5c1-0.9,2-1.7,2.9-2.5c0,0,0,0,0.1-0.1c2-1.6,3.6-2.1,4.7-1.6
		c1.2,0.5,1.6,2,1.2,4.7c0-0.1,0-0.1,0-0.1c-0.3,2.7-0.5,5.4-0.7,8c0,0.1,0,0.1,0,0.1c-0.2,1.1-0.2,1.7,0,2c0.1,0.1,0-0.3,0.3-0.5
		l0,0c1.1-0.8,2.1-1.6,3.3-2.5c1.1-0.8,2.2-1.6,3.4-2.3l0,0c2-1.2,3.5-1.5,4.5-0.9c1.1,0.7,1.5,2.1,1.2,4.3l0,0
		c-0.3,2.5-0.5,5.1-0.7,7.6l0,0c-0.1,0.8-0.1,1.1-0.1,1.1s0.2-0.2,0.6-0.5l0,0c1.5-1.1,3-2,4.4-2.5c1.5-0.7,2.9-1,4.3-1h0.1
		c0.7,0,1.3,0.1,1.8,0.3c0.6,0.2,1,0.5,1.3,0.9c1,1.4-0.2,2.9-1.3,4.4c-0.1,0.2-0.3,0.3-0.4,0.5c0.1,0,0.1,0,0.1,0
		c-7.4,10.7-12.9,20.5-17.3,29.8c-4.3,9-7.5,17.4-10,25.5c1.5,3,1.9,5.3,1.3,7.1c-0.6,1.9-2.1,3.1-4.6,3.9c-0.1,0-0.1,0-0.1,0
		c1.1,2.9,1.9,5.9,1.9,8.9c0,5.3-1.9,10.1-5.1,13.9c-2.9,3.6-6.9,6.2-11.5,7.4c1.4,1.6,2,3.4,2.2,5.1c0.2,1.9-0.2,3.7-1,5.3
		c-0.7,1.6-1.9,3.1-3.2,4.2c-1.8,1.5-3.9,2.4-5.9,2.3c-2.2,6.4-4.4,12.8-6.5,19.2l0,0c-0.7,1.5-0.9,3-1,4.3c-0.2,1.1-0.3,2-0.8,2.6
		l-0.1,0.2c-0.7,0.8-1.8,1.1-3.4,1.2c-1.3,0.1-3.1-0.1-5.3-0.3l0,0c-15.5-2.5-28.8-7.5-40.4-14.4c-2-1.1-3.8-2.3-5.7-3.5
		c-2.9,2.3-5.9,4.5-9.9,6.4c0.8,2.2,0.7,4.1-0.1,5.6c-1.2,2.6-3.8,3.9-6.6,4c-2.1,0.2-4.5-0.5-6.7-1.9c-0.6,0.4-1.1,0.8-1.8,1.2
		c-0.6,0.4-1.4,0.7-2.2,1.1c0.4,1.1,0.8,2.4,1,3.4c0.1,0.5-0.2,0.9-0.6,1.1c4.5,7.3,5.4,15.6,3.8,23c-1,4.8-2.9,9.2-5.5,12.8
		c-2.7,3.6-6,6.3-9.6,7.5c-1.6,0.6-3.4,0.8-5.1,0.7c0,4.7-0.9,8.3-2.4,11c-1.5,2.8-3.7,4.7-6.4,5.7c0.6,6.2,3.3,12.4,8.3,18.6
		c4.1,3.7,6.9,6.3,8,9.6c1.1,3.4,0.4,7.2-2.4,13.2c-0.5,1.4-1.2,2.5-2,3.6c-1.2,1.5-2.7,2.8-4.3,3.4c-1.2,0.5-2.6,0.6-3.9,0.4
		c-0.7,1.7-1.8,3.4-3.7,5.1c0.3,0.6,0.6,1.1,0.7,1.6c0.8,2.2,0.6,4.3-0.6,6.5c3.1,2.4,5.1,4.6,6,6.5c0.5,1.1,0.7,2,0.7,2.8
		c-0.1,0.9-0.3,1.7-0.9,2.5c-0.3,0.4-0.7,0.8-1.2,1.1c7.8,3.5,12.7,7.1,15.9,11c1.6,1.7,2.6,3.5,3.5,5.3c0.2,0.2,0.2,0.4,0.2,0.5
		c1.1,2.3,1.7,4.6,2.1,7c0.1,0.2-0.1,0.7-0.2,0.8c-9.3,8-22.2,12.8-36.2,14.1c-14.2,1.3-29.7-0.8-44.1-6.5c-0.2,0-0.4-0.3-0.5-0.4
		c-0.6-1.1-0.5-3.9-0.1-7.2c-9.5,1.6-19.2,2.9-29,3c-10.3,0.2-20.7-1.1-31.1-4.7c-1.4-0.3-2.1-1.1-2.5-2c-0.3-0.9-0.3-1.9-0.2-3.1
		l0,0c0.7-9.5,3.4-13.2,7.1-18.2c0.1-0.2,0.3-0.3,0.4-0.6c-0.8-0.5-1.5-1-2.2-1.6c-1.7-1.5-2.5-3.2-1.8-5.1c0.4-1.1,1.3-2.3,2.9-3.4
		c-0.5-0.7-0.8-1.5-1.1-2.2c-0.3-1.4-0.2-2.8,0.5-4.1c0.7-1.4,2.3-2.6,4.7-3.5c-0.5-0.7-0.9-1.5-1.2-2.2c-0.7-1.9-0.8-3.8,0.2-5.6
		c0.7-1.2,1.9-2.5,3.8-3.6c-0.9-0.9-1.6-1.7-2.3-2.5c-1.9-2.5-2.9-5.1-2.3-7c0.1-0.3,0.3-0.6,0.4-0.9c0.9-1.7,2.8-3.2,5.8-4.3
		c1.1-0.4,2.4-0.7,3.8-1c-0.2-2.1,0.2-3.8,1-5.2C276.5,392.3,277.9,391.1,279.5,390.3L279.5,390.3z M306.9,381.7
		c3.5,5.8,6.1,11.4,7.4,16.8c0.4,1.6,0.6,3.2,0.7,4.7c3.4,0.4,7,0.5,10.5,0.4c3.6,0,7.3-0.2,10.9-0.6c-0.1-0.3-0.2-0.6-0.3-0.8
		c-1.9-4.5-6.6-10.3-15.3-18.2C315.6,384,311,383.2,306.9,381.7L306.9,381.7z"/>
	<path class="st3" d="M359.4,273.4c0.5,0.2,0.9,0.4,1.5,0.7h-0.1c9.4,4.3,18.7,10.7,25.8,17.4c4.8,4.6,8.7,9.3,10.9,13.7
		c0.7-0.2,1.5-0.5,2.1-0.9c0.3-0.2,0.7-0.5,1.1-0.7c-0.3-0.3-0.7-0.7-1-1.1c-0.9-0.9,0.2-2.1,1.1-1.3c2.1,2.1,5,3.7,8,3.5
		c2-0.1,4.2-1,5.1-2.9c0.5-1.1,0.6-2.5-0.1-4.3c-9.6-0.3-21.9-10.1-27.2-18.8c-1.7-2.8-2.7-5.6-2.6-8.2c0-5.6,5.1-10.1,11-8.1
		c2.4,0.9,4.6,2.9,6.5,5.6c9.1,9.2,19.2,17.9,30.4,24.4c11.5,6.7,24.4,11.7,39.7,14.2c2.1,0.2,3.8,0.3,5,0.2c1.1,0,1.7-0.2,2-0.6
		c0.3-0.3,0.3-1.1,0.4-2c0.3-1.2,0.4-2.9,1.2-4.6c2.2-6.3,4.3-12.6,6.5-19c-4.9-2-9.8-4.1-14.8-6.1c-0.4-0.3-0.8-0.4-0.5-1.2
		c0.4-0.8,0.8-0.7,1.2-0.5c5.1,2.1,10.1,4.3,15.2,6.4c1.8,0.4,3.8-0.4,5.4-1.7c1.2-1,2-2.2,2.7-3.6c0.7-1.4,1-2.9,0.9-4.3
		c-0.3-2-1.3-4.1-3.7-5.8c-8.3-4.3-16.7-8.6-25-12.9c-3.8,1.8-8.3,2.9-13,2.9c-7.5,0-14.4-3.3-19.4-8.2c-5.3-5.1-8.6-12.2-8.6-19.3
		c0-6.9,3-13.2,7.9-17.7c4.8-4.3,11.5-7,19.2-7c7.7,0,14.8,3.2,20.1,8.2c3.4,3.2,6,7,7.5,11.2c1.2-0.5,2.4-0.9,3.6-1.2
		c1.5-0.3,3.2-0.5,4.8-0.5c6,0,11.5,2.9,15.6,7.2c1.7,1.8,3.2,3.8,4.3,6.1c0.2,0,0.2-0.1,0.3-0.1c1.9-0.6,3.1-1.5,3.4-2.8
		c0.5-1.4,0.1-3.4-1.3-6c-0.1-0.1-0.1-0.5-0.1-0.7c2.6-8.3,5.8-16.9,10.2-26.2c4.4-9.2,10.1-19.1,17.5-29.9c0,0,0,0,0-0.1
		c0.2-0.2,0.2-0.3,0.4-0.6c0.7-0.9,1.5-1.9,1.2-2.2l0,0c-0.1-0.2-0.3-0.2-0.5-0.3c-0.2-0.1-0.7-0.2-1.2-0.2
		c-1.1,0.1-2.4,0.4-3.6,0.9c-1.3,0.6-2.6,1.3-4.1,2.3c-0.9,0.7-1.8,1.1-2.5,0.7c-0.7-0.3-1-1.2-0.8-2.9l0,0c0.3-2.5,0.5-5.1,0.7-7.6
		l0,0c0.2-1.6,0.1-2.4-0.3-2.6c-0.4-0.2-1.3,0-2.6,0.8c-1.2,0.7-2.3,1.6-3.4,2.3c-1,0.7-2.1,1.6-3.1,2.4c-0.1,0-0.1,0-0.1,0
		c-1.2,1-2.1,1-2.8,0.1c-0.4-0.6-0.5-1.6-0.3-3.2c0.3-2.7,0.5-5.3,0.7-8v-0.1c0.2-1.6,0.2-2.6-0.1-2.8c-0.4-0.2-1.4,0.3-2.9,1.5
		c0,0,0,0,0-0.1c-1,0.9-2,1.7-2.9,2.5c-0.9,0.8-1.9,1.7-2.9,2.6l-0.2,0.1c-0.2,0.2-0.3,0.2-0.5,0.3v0.1c-0.6,0.4-1.2,0.8-1.8,0.8
		c-1.2,0.1-2-0.9-2-4.1l0,0c0-1.6,0-2.9,0-4.4c0.1-1.4,0.1-2.9,0.1-4.4c0.1-1,0-2.2-0.3-2.5c-0.4-0.3-1.4-0.2-3.6,1.3
		c-1.7,1.3-3,2.6-4.3,3.9c-0.7,0.7-1.3,1.4-2,2.1l0,0c-1.2,1.1-2.2,1.5-3.1,1l0,0c-0.7-0.5-1.1-1.6-1-3.5c0,0,0,0,0-0.1
		c0.3-3.1,0.6-6.2,0.8-9.3c0-0.6-0.1-1.2-0.4-1.7c-0.1-0.3-0.3-0.6-0.6-0.7c-0.3-0.1-0.7-0.1-1.2,0c-0.7,0.3-1.6,0.8-2.8,1.9
		c-0.3,0.3-0.7,0.7-1,1c-1.6,1.6-3.2,3.3-4.8,5.3l0,0c-1.3,1.5-2.4,1.9-3.4,1.3c-0.9-0.6-1.5-1.8-2-3.8v-0.1
		c-0.3-1.4-0.4-2.8-0.6-4.3c-0.2-1.6-0.3-3.1-0.3-4.7v-0.1c0.1-1.6,0-2.9-0.5-3.3c-0.4-0.3-1.3-0.1-3,1.1l0,0
		c-1.9,1.1-4.2,3.8-5.6,5.6c-0.6,0.7-1.1,1.2-1.3,1.5c-1.3,1.2-2.5,1.6-3.5,1.1c-0.9-0.4-1.6-1.6-1.9-3.8c-0.2-1.1-0.3-2.2-0.3-3.3
		c-0.1-1.7-0.3-3.4-0.7-5c-0.3-0.9-0.5-1.6-0.8-2c-0.2-0.2-0.3-0.3-0.4-0.4c-0.2,0-0.3,0.1-0.6,0.2c-0.4,0.3-0.9,0.8-1.5,1.5
		c-0.9,1.2-1.6,2.5-2.4,3.8c-1,1.8-2,3.5-3.4,5c-1.1,1.1-2,1.6-3,1.3c-0.9-0.3-1.5-1.4-1.9-3.4c-0.1-0.5-0.2-1.1-0.2-1.6
		c-0.1-0.6-0.1-1.2-0.2-2c-0.2-1.2-0.3-2.3-0.6-3.3c-0.2-1-0.4-1.8-0.7-2.4c-0.3-0.4-0.4-0.7-0.7-0.9l0,0c-0.1,0-0.1-0.1-0.1-0.1
		c-0.1,0-0.1,0-0.2,0.1c-0.3,0.1-0.6,0.4-1,0.9v0.1c-1,1.3-1.6,2.9-2.1,4.3c-0.4,1.3-0.8,2.6-1.6,3.8h-0.1c-0.3,0.5-0.6,0.8-1,1
		c-0.4,0.2-0.8,0.3-1.1,0.3c-0.4-0.1-0.8-0.2-1.2-0.5l0,0c-0.3-0.2-0.6-0.7-1-1.2c-0.7-1.3-1.1-2.6-1.5-3.8c-0.5-1.5-1-2.9-2-3.9
		l-0.1-0.1c-0.3-0.6-0.7-1-1-1.1c-0.1,0-0.2-0.1-0.2-0.1s0,0.1-0.1,0.1c-0.1,0.2-0.3,0.5-0.3,0.9c-0.2,0.7-0.2,2-0.2,3.3
		c-0.2,2.5-0.3,5.8-1.1,9h-0.1c-5.1,18-10.8,35.9-17.3,53.8c-6.5,17.6-13.7,35.2-22.4,52.7c1.6,0.9,3.1,2.4,4.5,4.4
		c0.3,0.3,0.6,0.7-0.2,1.2c-0.7,0.5-1,0.2-1.2-0.2c-1.7-2.3-3.4-3.8-5.2-4.6c-1.5-0.7-2.9-0.8-4.3-0.7c-1.3,0.2-2.6,0.8-3.8,1.6
		c-1.5,1.1-2.9,2.7-3.7,4.5c0,0.1,0,0.1,0,0.1c-1,2-1.6,4.3-1.5,6.4c0.1,1.5,0.4,2.9,1.1,4.1c1.5,2.7,4.7,3.8,7.8,3.7
		c0.5,0,0.9-0.1,1,0.8c0,0.9-0.4,1-0.9,1c-2.3,0.1-4.2-0.3-5.7-1.1c0-0.1-0.1-0.1-0.1-0.1c-2,2.8-4.1,5.6-6.5,8.1
		C365.1,268.6,362.5,271,359.4,273.4L359.4,273.4z M383.9,342.3c-2.1-3.9-4.9-7.7-8.3-11c-3.7-3.6-8.2-6.7-13.3-9.1
		c-10.5,9.2-17.5,20-19.9,32.5c-2.5,12.6-0.3,27,7.1,43.6c0.1,0.1,0.1,0.6,0,0.6c-0.9,2.5,1.6,4.8,4,7c0.2-0.2,0.6-0.2,0.9,0.4
		c0.2,0.2,0.3,0.4,0.3,0.5c1.4,1.3,2.7,2.4,3.4,3.8c1.1,2.3,0.4,4.6-4.6,7.1c0.7,0.9,1.6,1.6,2.6,1.9c1,0.3,2,0.4,3.2,0.3
		c1-0.1,2-0.5,3-1.1c0.2-0.3,0.3-0.3,0.5-0.3c2.2-1.4,4.3-3.9,5.5-7.4c0.2-0.4,0.3-0.8,1.1-0.6c0.9,0.3,0.7,0.7,0.6,1.1
		c-1.1,3.3-2.9,5.7-5,7.4c3.9,0.9,6.6,0.6,8.8-0.7c0.1-0.1,0.3-0.2,0.4-0.2c0,0,0-0.1,0.1-0.1c0.2-0.3,0.4-0.4,0.6-0.4
		c1.9-1.5,3.2-3.8,4.2-6.6c0.2-0.5,0.3-0.9,1.1-0.6c0.9,0.3,0.7,0.7,0.6,1.1c-1.1,2.8-2.4,5.2-4.3,7c0.1,0.1,0.2,0.1,0.3,0.2
		c0.1,0,0.1,0.1,0.2,0.1c0.1,0,0.2,0.1,0.2,0.1c1.1,0.3,2.3,0.3,3.4-0.2c1.3-0.6,2.5-1.6,3.6-2.9c0.7-1,1.3-2,1.8-3.2
		c0.1,0,0.1-0.1,0.1-0.1c2.5-5.6,3.1-9,2.2-11.8c-1-2.9-3.6-5.4-7.6-8.9l-0.1-0.1c-5.3-6.5-8.2-13.1-8.7-19.8c0-0.1-0.1-0.1-0.1-0.2
		c-0.2-0.5-0.1-0.7,0-0.8c-0.1-1.3,0-2.6,0.1-3.9C372.6,358.9,376.7,350.7,383.9,342.3L383.9,342.3z M275.5,374.6
		c2.1,0.7,4.3,1.1,6.4,1.1c0.5,0,0.9,0,0.9-0.9c0-0.9-0.4-0.9-0.9-0.9c-2.4,0-5-0.6-7.4-1.7c-0.2-0.2-0.3-0.5-0.7-0.4
		c-2.6-1.3-5.1-3.3-7.4-5.7c-2.4-2.7-4.5-5.9-6-9.6c-1.5-3.7-2.4-7.8-2.4-12.2c-0.1-10.5,4.7-22.8,17.8-34.7
		c15.8,2,29,5.5,39.7,10.1c13.7,5.9,23.4,13.6,29.3,22.2c-1.9,4-3.3,8.2-4.2,12.6c-2.5,12.8-0.3,27.5,7.1,44.3
		c-0.9,3.3,1.5,5.8,4.2,8.1c-3.8,2-8.8,3.7-14.7,4.8c2-2.8,2.4-6.1,0.6-10.3c-1.9-4.5-6.4-10.1-14.4-17.6c1.1-0.1,2.2-0.2,3.4-0.3
		c0.5-0.1,0.9-0.1,0.8-1c-0.2-0.9-0.6-0.8-1.1-0.7c-7.1,0.9-14.6,0.3-21.2-2.7c-0.1-0.1-0.2-0.1-0.2-0.1c-3.6-1.6-6.6-3.8-9.2-6.4
		c-4-3.9-6.9-8.7-8.6-13.9c-1.6-5.1-2.2-10.5-1.5-15.4c1.1-7.2,4.8-13.6,11.2-16.8c0.4-0.2,0.8-0.4,0.4-1.1
		c-0.4-0.8-0.8-0.7-1.2-0.4c-1.5,0.7-2.8,1.5-3.9,2.5c-0.6-1.4-1.1-2.8-1.7-4.2c-0.3-0.4-0.4-0.9-1.2-0.5c-0.8,0.3-0.7,0.7-0.5,1.1
		c0.7,1.6,1.4,3.2,2,4.8c-3.8,3.8-6,8.8-6.8,14.3c-0.8,5.2-0.2,10.8,1.5,16.2c1.8,5.3,4.8,10.5,9.1,14.6c2.7,2.6,5.9,4.9,9.6,6.6
		c4,6.4,7.1,12.6,8.4,18.3c1.1,5,0.9,10.5-2,14.9c-10.2-0.4-20.4-2-28.5-5.4c2-1.9,2-6.5,0.9-11.8c-0.4-1.8-0.9-3.7-1.4-5.7
		c-0.1-0.2-0.1-0.3-0.2-0.6l0,0C279.6,384.4,277.2,378.4,275.5,374.6L275.5,374.6z M384.6,248c-0.3-1.6-0.8-3.1-1.6-4.3
		c-2,0.6-3.5,1.3-4.3,2.4c-0.8,1-1,2.3-0.5,4c0.1,0.3,0.2,0.6-0.5,0.8c-0.6,0.2-0.7-0.2-0.8-0.5c-0.6-2.1-0.3-3.8,0.7-5.2
		c0.9-1.1,2.4-2,4.4-2.5c-0.3-0.2-0.6-0.5-0.9-0.6c-0.3-0.2-0.7-0.2-1.1-0.2c-0.6,0-1.1,0.3-1.6,0.8c-0.2,0.2-0.4,0.5-0.9,0.1
		c-0.5-0.5-0.2-0.7,0-1c0.7-0.8,1.6-1.2,2.4-1.3c0.6,0,1.1,0.1,1.7,0.3c0.6,0.2,1.1,0.6,1.5,1c1.4,1.4,2.5,3.7,2.8,6
		c0,0.3,0.1,0.7-0.6,0.7C384.7,248.7,384.6,248.4,384.6,248L384.6,248z M378,267.6c1.2-5.6,3.4-9.3,6.5-11.3c3.1-2,7-2,11.6-0.4
		c0.5,0.1,0.9,0.2,0.6,1.1c-0.2,0.9-0.6,0.7-1.1,0.6c-4.1-1.4-7.5-1.3-10.1,0.3c-2.7,1.6-4.6,4.9-5.6,10.1c-0.2,0.5-0.3,0.9-1.1,0.7
		C377.9,268.4,377.9,268,378,267.6L378,267.6z"/>
	<path class="st4" d="M265.8,317.7c2.1-2.8,4.6-5.6,7.5-8.3c-2-0.2-4-0.4-6.1-0.6c-2,2-2.8,3.6-2.9,5.1
		C264.2,315.3,264.8,316.5,265.8,317.7L265.8,317.7z M380.6,355.1c-0.9-0.2-1.9-0.5-2.9-0.9c-2.3,4.4-3.7,8.7-4.1,13.1
		c-0.1,1-0.1,2-0.1,2.9c2-1,3.7-2.4,4.9-4.7C379.9,363,380.6,359.6,380.6,355.1L380.6,355.1z M329.9,286.7c2.9-2,5.7-3.9,8.5-5.9
		c0.2,0,0.2-0.1,0.4-0.3c2.4-1.6,4.9-3.4,7.3-5l0.1-0.1c2.2-1.7,4.3-2.3,6.6-2.2c2.4,0.2,5.1,1.3,7.4,2.4l0,0
		c9.2,4.3,18.3,10.5,25.3,17.1c5.7,5.4,10.1,11,11.6,15.9c-1.6-0.7-3.2-1.5-4.9-2.1c-5.7-2.4-10.7-3.7-17.3-2.8
		c-9,1.2-17.5,6.3-23.6,13.1l-0.1,0.1c-1.8,2.6-2.8,5.2-2.7,7.8c0.1,2.4,1.1,4.5,3,6.4c-2.2,2.9-4.2,5.8-5.8,9
		c-6.1-8.5-15.9-16.2-29.4-22.1c-12.4-5.3-28.1-9.2-47.2-10.9c14.9-13.2,28.6-18.5,40.8-19.8c12.2-1.3,22.7,1.5,31,4.3
		c0.4,0.2,0.8,0.3,1.1-0.5c0.3-0.9-0.1-1-0.5-1.1C337.9,288.8,334,287.6,329.9,286.7L329.9,286.7z M319.2,285.3
		c2.9,0.2,5.6,0.5,8.2,0.9c2.8-2,5.6-3.8,8.5-5.8c-3.4-0.7-6.5-0.5-9.2,0.3C323.9,281.6,321.4,283.1,319.2,285.3L319.2,285.3z
		 M378.7,352.6c0.9,0.3,1.8,0.7,2.7,0.8c0.1,0,0.1,0,0.2,0c0.3,0,0.5,0.1,0.6,0.2c1.6,0.1,3.3-0.1,4.8-0.7c0.2-0.1,0.5-0.2,0.7-0.3
		c-0.7-2.9-1.6-5.8-2.9-8.6C382.4,346.9,380.3,349.8,378.7,352.6L378.7,352.6z M352.1,318.7c-1.2,2-1.9,4.1-1.9,6
		c0.1,1.8,0.8,3.5,2.4,4.9c2.3-2.8,5-5.6,7.9-8.2C357.8,320.4,355,319.4,352.1,318.7L352.1,318.7z M389.3,351.8
		c2.3-1.3,4.5-3.3,6.3-5.8c2.5-3.3,4.3-7.5,5.2-12c1.5-7.1,0.6-15.1-3.9-22.1c-6.9-5.6-14.6-7.4-21.8-6.3
		c-8.2,1.1-15.9,5.6-21.7,11.6c9.7,2.5,17.5,7.1,23.5,12.8c3.8,3.6,6.8,7.7,9,12.1c0.1,0.1,0.1,0.1,0.1,0.2
		C387.4,345.3,388.6,348.5,389.3,351.8L389.3,351.8z"/>
	<path class="st5" d="M320.9,469.6c16.1,4.8,30.7,6.7,43.4,5.6c12.6-1.1,23.2-5.1,31.5-11.9c-0.7-1.5-1.7-2.9-2.9-4.4
		c-3.3-3.8-8.3-7.4-16.4-10.9c-8.1,3.8-16.8,6.6-25.9,8.4c-8.5,1.6-17.6,2.4-27.1,1.8c-0.3,0.9-0.6,2.3-1.1,4c0.1,0.4,0,0.7-0.2,0.7
		C321.7,465,321.2,467.4,320.9,469.6L320.9,469.6z M317.5,449.5c-0.3,1.4-0.7,2.9-0.8,4.1c-0.2,2.5,0.6,4.3,4.2,4.5l0,0
		c0.2,0.1,0.4,0.1,0.6,0.1c-0.3,0.9-0.6,2-0.9,3.4c-11.1,2.4-22.3,3.7-33.2,3.3c-10-0.4-19.6-2.2-28.7-5.5c1.2-5.3,3.3-8.2,6-11.8
		c0.2-0.3,0.3-0.5,0.5-0.7c0.9,0.4,1.9,0.9,2.9,1.3c8.4,3.4,21.2,5.5,26.7,5.5c0.1,3.5,2,6,4.6,7.4c1.3,0.7,2.8,1,4.2,1
		c1.5,0.1,2.9-0.3,4.3-1.1c2.8-1.5,4.8-4.7,4.7-9.7h0.1C314.4,450.7,316,450.2,317.5,449.5L317.5,449.5z M315,405
		c-0.1,3.1-0.8,6-2.5,8.8c7.6,0.1,15.2-0.5,21.9-1.6c0,0,0.1,0,0.1-0.1c2-2,2.9-4.4,2.4-7.4c-3.8,0.4-7.6,0.7-11.4,0.7
		C322,405.5,318.5,405.4,315,405L315,405z M280.1,407.6c-2.1-1-4.1-2-5.8-3.2c-0.4-0.3-0.7-0.6-1.2,0.2c-0.5,0.7-0.2,1,0.2,1.3
		c9.2,6.3,23.4,9.2,37.5,9.7c0.1,0,0.2,0,0.3,0c0.2,0,0.5,0,0.8,0c16.3,0.4,32.7-2.5,41.2-7.4c1.4,1.1,2.6,2.3,3.1,3.4
		c0.7,1.4-0.1,2.9-4.2,5c-10,4.3-18.6,6.8-26.2,8.2c-7.5,1.3-13.9,1.5-19.8,0.9c-0.4-0.1-0.9-0.1-1,0.7c-0.1,0.9,0.4,1,0.8,1
		c6,0.7,12.6,0.5,20.3-0.9c7.4-1.3,15.7-3.8,25.4-7.8c1,1.4,2.2,2.3,3.7,2.8c1.2,0.5,2.6,0.7,4,0.4c1.2-0.2,2.5-0.6,3.6-1.2
		c5.1,1.5,8.8,1.1,11.6-0.6c0.1-0.1,0.2-0.2,0.3-0.2c0.2,0.1,0.4,0.2,0.6,0.3c-0.8,2.5-3.3,5-7.4,7.4c-4.7,2.7-11.8,5.2-21.4,7.6
		c-0.5,0.1-0.9,0.2-0.7,1.1c0.2,0.8,0.6,0.7,1.1,0.6c9.8-2.4,17-5,21.9-7.8c1.1-0.7,2.2-1.4,3.2-2.1c0.2,0.3,0.3,0.7,0.5,1.1
		c0.6,1.7,0.4,3.4-0.6,5.1c-1,1.7-2.9,3.5-5.6,5.2c-3.3,2.1-7.8,4.3-13.6,6.2c-0.5,0.2-0.9,0.3-0.6,1.1c0.3,0.8,0.7,0.7,1.1,0.5
		c5.9-2,10.5-4.2,14-6.4c2.3-1.5,4-2.9,5.2-4.5c2.9,2.2,4.6,4.1,5.4,5.8c0.3,0.7,0.4,1.3,0.4,1.9c0,0.6-0.2,1.1-0.6,1.5
		c-0.4,0.6-1.1,1.1-2.1,1.5l0,0c-8.1,3.8-16.6,6.7-25.8,8.5c-9.1,1.7-18.8,2.4-29.2,1.6l0,0c-2-0.1-2.5-1.2-2.5-2.5
		c0.1-1.1,0.4-2.5,0.8-3.9c0.2-0.5,0.2-1,0.4-1.4c0.6-0.4,1.1-0.8,1.7-1.2c1.5,0.9,3.3,1.5,5.3,1.8c4.4,0.7,9.7,0.2,15-0.2
		c0.5,0,0.9,0,0.8-0.9c0-0.9-0.5-0.9-0.9-0.8c-5.2,0.3-10.5,0.9-14.6,0.3c-2-0.3-3.7-0.9-5.1-1.9c-0.2-0.2-0.3-0.2-0.3-0.2
		c-1.1-0.8-1.9-1.8-2.5-3.1c6.9-0.1,13.2-1.1,18.2-2.9c0.4-0.1,0.8-0.3,0.6-1.1c-0.3-0.8-0.7-0.7-1.1-0.5c-5.8,2-13.3,2.9-21.6,2.7
		c-8.3-0.2-17.3-1.5-26-3.8c-0.4-0.1-0.8-0.3-1.1,0.6c-0.2,0.8,0.2,1,0.7,1.1c8.7,2.5,17.9,3.8,26.4,3.9c0.7,0,1.3,0,2,0
		c0.6,1.7,1.5,3,2.6,4.1c-0.3,0.2-0.8,0.6-1.3,0.8c-0.2,0-0.3,0.1-0.3,0.2c-1.6,0.9-3.8,1.6-6.3,2.3c-0.2,0.1-0.5,0.2-0.7,0.2
		c-0.2,0.1-0.3,0.1-0.3,0.1c-3.9,1-8.9,1.6-14.9,2l0,0c-0.2,0.1-0.3,0.1-0.4,0.1c-0.1,0-0.3,0-0.3,0c-4.8,0.2-17.9-1.9-26.6-5.4
		c-2.5-1-4.7-2.1-6-3.4c-1.1-1.1-1.7-2.1-1.3-3.2c0.2-0.8,1-1.6,2.3-2.5c0.1,0.1,0.2,0.2,0.3,0.3c2.8,2.8,7.5,5.1,12.8,5.6
		c0.4,0,0.8,0.1,0.9-0.8c0.1-0.9-0.3-1-0.8-1c-4.8-0.4-9.2-2.5-11.7-5.1c-0.1-0.1-0.2-0.2-0.3-0.3c0-0.1-0.1-0.2-0.2-0.3
		c-0.2-0.3-0.3-0.4-0.5-0.5c-0.4-0.6-0.7-1.2-1-1.9c-0.2-0.9-0.2-1.9,0.3-2.7c0.7-1.1,2-2.2,4.3-3c0.4,0.4,0.8,0.8,1.3,1.2
		c3.4,3.1,8.5,5.5,11.9,6.1c0.4,0.1,0.9,0.2,1.1-0.7c0.2-0.9-0.3-1-0.7-1.1c-3.2-0.6-7.8-2.9-11.1-5.8c-1.5-1.3-2.7-2.7-3.3-4.2
		c-0.6-1.4-0.6-2.8,0.2-4.1c0.6-1.1,1.7-2.2,3.5-3.3c1.3,1.1,2.7,2.1,4.3,3c2.3,1.4,4.7,2.5,7.4,3.3c0.4,0.2,0.9,0.3,1.1-0.6
		c0.3-0.9-0.3-1-0.7-1.1c-2.4-0.6-4.8-1.7-6.9-3c-3-1.9-5.6-4.2-7.3-6.4c-1.6-2.1-2.5-4.1-2-5.5c0.1-0.2,0.2-0.3,0.3-0.5V405
		c0.7-1.3,2.2-2.5,4.8-3.4c1.1-0.4,2.2-0.6,3.5-1c0.2,0.3,0.3,0.4,1,0.3c0.5-0.1,0.7-0.3,0.7-0.6c1.5-0.2,3.1-0.4,4.9-0.5
		c0.5,3.7,0.3,6.5-1.1,7.3C280.4,407.3,280.2,407.5,280.1,407.6L280.1,407.6z"/>
	<path class="st6" d="M258.3,461c-0.2,1.2-0.3,2.4-0.4,3.8l0,0c-0.1,1-0.1,1.7,0.1,2.3c0.2,0.4,0.6,0.8,1.3,0.9h0.1
		c10.1,3.6,20.4,4.8,30.5,4.6c9.9-0.2,19.7-1.5,29.3-3c0.3-2,0.7-4.1,1-6c-11,2.3-22.1,3.5-32.9,3
		C277.2,466.3,267.5,464.5,258.3,461L258.3,461z M396.6,465.1c-8.5,6.8-19.4,10.8-32.1,11.9c-12.8,1.1-27.6-0.7-43.8-5.6
		c-0.3,2.7-0.4,5-0.2,6c14.1,5.5,29.1,7.5,42.9,6.2c13.5-1.2,25.8-5.7,34.8-13.2C397.8,468.7,397.3,466.9,396.6,465.1L396.6,465.1z
		 M482.7,222.8c0.6,2,0.8,4,0.8,6.1c0,6.9-3.2,13.2-8.3,17.7c-1.5,1.3-3.2,2.5-5,3.5c8,4.1,15.9,8.2,23.9,12.3h0.1
		c0.3,0.3,0.5,0.4,0.7,0.6h0.1c4.7-0.9,8.8-3.4,11.7-7c2.9-3.5,4.6-7.9,4.6-12.8c0-5.6-2.5-11.2-6.5-15.4c-3.8-4-8.8-6.6-14.3-6.6
		c-1.6,0-3,0.2-4.4,0.5C484.9,221.9,483.7,222.3,482.7,222.8L482.7,222.8z M454.5,203.4c7.2,0,13.9,3.1,18.9,7.8
		c3.4,3.1,5.9,7,7.3,11c0,0.2,0,0.2,0.1,0.4c0.7,2,1,4.2,1,6.2c0,6.4-2.9,12.2-7.7,16.4c-5,4.4-12,6.9-18.7,6.9
		c-7,0-13.4-3.1-18.2-7.7c-4.9-4.8-8-11.4-8-18c0-6.4,2.8-12.2,7.3-16.3C441,205.9,447.3,203.4,454.5,203.4L454.5,203.4z
		 M498.1,240.9c1.6,0,3,1.4,3,3c0,1.6-1.3,2.9-3,2.9c-1.6,0-2.9-1.3-2.9-2.9C495.2,242.3,496.5,240.9,498.1,240.9L498.1,240.9z
		 M448.7,220.9c-2.1,0-3.8,1.7-3.8,3.8c0,2,1.7,3.8,3.8,3.8c2.1,0,3.8-1.7,3.8-3.8C452.6,222.6,450.9,220.9,448.7,220.9L448.7,220.9
		z M310.6,451.7c-3.8,0.8-8.6,1.4-14.1,1.8c0,2.8,1.5,4.8,3.6,5.9c1.1,0.6,2.2,0.8,3.4,0.9c1.1,0,2.3-0.3,3.4-0.9
		C309,458.3,310.6,455.7,310.6,451.7L310.6,451.7z M396.7,265.2c-0.7-0.5-1.5-0.9-2.1-1.1c-2-0.7-4.2-0.4-6.6,1.4
		c-1.4,1.5-2,3.2-2,5c0,1.6,0.4,3.1,1.1,4.7c1.8-1.5,3.4-3,5-4.7C393.6,268.8,395.2,267,396.7,265.2L396.7,265.2z M404.9,273.7
		c-1.6,2.2-3.4,4.1-5.2,5.9c-2,1.7-4,3.3-6.1,4.7c-2.1-2-3.9-4.3-5.3-6.5c-0.2-0.3-0.3-0.6-0.5-0.9c2-1.6,3.8-3.3,5.6-5.1
		c1.6-1.7,3.2-3.5,4.7-5.4c0.8,0.8,1.6,1.7,2.4,2.8l0,0C401.9,270.7,403.4,272.2,404.9,273.7L404.9,273.7z M414.6,282.3
		c-1.6,1.6-3.4,3.2-5.3,4.7c-2,1.6-4.4,2.9-6.9,4.3c-2.5-1.6-5.1-3.6-7.5-5.7c2.1-1.5,4.1-2.9,5.9-4.7c2-1.8,3.8-3.8,5.5-5.9
		C408.9,277.6,411.7,280,414.6,282.3L414.6,282.3z M414,295.6C414,295.6,414.1,295.6,414,295.6c4.2-1.8,7.1-4,10-6.2
		c-2.8-1.9-5.5-3.9-8-6c-1.6,1.7-3.5,3.4-5.7,4.9c-1.9,1.4-3.9,2.7-6.1,4C407.7,294.3,411.2,295.5,414,295.6L414,295.6z"/>
	<path class="st3" d="M281.4,398.2c-0.1-0.4-0.2-0.8-0.2-1.2c-0.3-1.6-0.7-3.3-1.2-4.9c-1.1,0.7-2.1,1.5-2.7,2.6
		c-0.6,1.1-0.9,2.4-0.7,4C278,398.5,279.6,398.3,281.4,398.2L281.4,398.2z"/>
	<path class="st7" d="M263.2,511.3c-0.2-1.1-1-2-2.2-2.6c-1.2-0.6-2.9-0.8-5-0.8c-1.6,0-2.9,0.2-3.9,0.5c-1.1,0.3-1.6,0.9-1.6,1.6
		c0,1.3,1.4,2.4,4.2,3.2c1,0.3,3.8,0.8,8.3,1.7c6.3,1.2,10.8,2.6,13.6,4.4c3.1,2,4.7,4.7,4.7,8.1c0,4.9-2.5,8.5-7.8,11
		c-4.3,2-10.1,3-17.1,3c-6.7,0-12.3-1.2-16.8-3.8c-4.7-2.6-7-5.9-7-10h16.8c0.3,1.6,1.5,2.8,3.4,3.5c1.4,0.6,3,0.8,4.9,0.8
		c1.7,0,3.2-0.2,4.3-0.6c1.5-0.5,2.3-1.2,2.4-2.2c0-1.4-1.5-2.5-4.5-3.3c-1.2-0.4-3.2-0.8-6-1.3c-4.4-0.8-7.8-1.6-10.1-2.4
		c-3.4-1.1-5.8-2.5-7.4-4.1c-1.9-2-2.9-4.3-2.9-7.4c0-3.6,2-6.5,6-8.8c4.2-2.4,10-3.5,17.3-3.5c6,0,11,0.9,14.7,2.7
		c4.5,2.2,7.2,5.6,8.1,10.1H263.2L263.2,511.3z M288.9,499.5h17.6v13.8h16.7v-13.8h17.6v40.7h-17.6v-15.8h-16.7v15.8h-17.6V499.5
		L288.9,499.5z M376.5,498.5c9,0,16,2.1,21.2,6.5c4.6,3.9,6.9,8.8,6.9,14.5c0,6.3-2.4,11.4-6.9,15.5c-5.2,4.3-12.1,6.5-21,6.5
		c-9.6,0-16.8-2.4-21.8-7.1c-4.2-3.8-6.3-8.8-6.3-14.7c0-6,2.3-10.9,6.9-14.7C360.4,500.6,367.5,498.5,376.5,498.5L376.5,498.5z
		 M376.5,508.4c-3.3,0-5.8,1-7.7,2.9c-1.9,2-2.8,4.8-2.8,8.6c0,3.8,0.9,6.6,2.8,8.6c1.8,2,4.4,2.9,7.8,2.9c3.7,0,6.5-1.1,8.2-3.4
		c1.6-2,2.3-4.5,2.3-7.7c0-3.5-0.7-6.4-2.4-8.4C382.9,509.6,380.1,508.4,376.5,508.4L376.5,508.4z M429.4,509v8.1h7.4
		c3.1,0,5.2-0.4,6.5-1.2c1-0.6,1.4-1.6,1.4-2.8c0-1.3-0.6-2.3-1.9-3c-1.3-0.7-3-1.1-4.9-1.1H429.4L429.4,509z M411.9,499.5h25.9
		c9.2,0,15.5,1.1,19.1,3.5c2.7,1.7,4,4.4,4,8.1c0,2.8-0.8,5-2.5,6.6c-1.6,1.6-3.8,2.8-6.5,3.3c4.2,1.2,6.6,2.6,7.6,4.1
		c0.9,1.5,1.4,3.8,1.4,6.8v3.1c0,1.5,0.2,2.5,0.4,3.1c0.3,0.6,0.7,0.9,1.5,0.9v1.2h-17.7c-0.4-1-0.7-3.3-1-7.1
		c-0.2-3.8-1.3-5.9-3.3-6.5c-1.1-0.2-2.3-0.4-3.6-0.5c-1.4-0.1-3.1-0.2-5.2-0.2h-2.6v14.2h-17.5V499.5L411.9,499.5z M467.3,499.5
		h49.1v10.7h-15.7v30h-17.5v-30h-15.9V499.5L467.3,499.5z M551.8,511.3c-0.2-1.1-1-2-2.2-2.6c-1.2-0.6-2.9-0.8-5-0.8
		c-1.6,0-3,0.2-3.9,0.5c-1,0.3-1.5,0.9-1.5,1.6c0,1.3,1.4,2.4,4.2,3.2c1,0.3,3.8,0.8,8.3,1.7c6.3,1.2,10.8,2.6,13.6,4.4
		c3.1,2,4.7,4.7,4.7,8.1c0,4.9-2.5,8.5-7.8,11c-4.3,2-10.1,3-17.1,3c-6.7,0-12.3-1.2-16.8-3.8c-4.8-2.6-7-5.9-7-10H538
		c0.3,1.6,1.5,2.8,3.4,3.5c1.4,0.6,3,0.8,4.9,0.8c1.7,0,3.2-0.2,4.3-0.6c1.5-0.5,2.3-1.2,2.5-2.2c0-1.4-1.5-2.5-4.5-3.3
		c-1.2-0.4-3.2-0.8-6-1.3c-4.4-0.8-7.8-1.6-10.1-2.4c-3.3-1.1-5.8-2.5-7.3-4.1c-1.9-2-2.9-4.3-2.9-7.4c0-3.6,2-6.5,6-8.8
		c4.2-2.4,10-3.5,17.3-3.5c6,0,11,0.9,14.7,2.7c4.5,2.2,7.2,5.6,8.1,10.1H551.8L551.8,511.3z"/>
	<path class="st7" d="M236.2,58.6h46.7v10.1H255v6.1h23.6v10.1H255v6.7h29v10h-47.8V58.6L236.2,58.6z M309.1,58.6h19.1l20.5,42.9
		H330l-2.3-5.7h-18.6l-2.2,5.7h-18.3L309.1,58.6L309.1,58.6z M312.6,86.9h11.9l-6-15.4L312.6,86.9L312.6,86.9z M351.9,58.6h52.4V70
		h-16.8v31.6h-18.7V70h-16.9V58.6L351.9,58.6z M460.8,58.6l10.1,26.8L481,58.6h22.6v42.9h-16.9l0.3-19.7l1-7.8l-10.6,27.6h-13
		L453.9,74l0.7,6.1c0,2,0,3.9,0.1,6c0.1,2,0.1,4,0.2,6v9.5h-16.7V58.6H460.8L460.8,58.6z M508.6,58.6h20.9l9.8,14.6l9.9-14.6h20.6
		l-21.2,27.2v15.8h-18.9V85.9L508.6,58.6L508.6,58.6z"/>
</g>
</svg>
